<svg width="546" height="93" viewBox="0 0 546 93" fill="none" xmlns="http://www.w3.org/2000/svg">
<g filter="url(#filter0_d_388_2270)">
<rect x="20" y="17" width="506" height="53" rx="20" fill="#F8F8F8"/>
<path d="M69.6374 31.8514H71.7651V49.5137H69.6374V31.8514ZM65.7153 37.9781H70.5346V39.7212H65.7153V37.9781ZM65.7153 42.8743H70.5346V44.5918H65.7153V42.8743ZM52.7441 34.6455H65.7153V36.3631H52.7441V34.6455ZM59.3066 37.6448C62.3828 37.6448 64.5361 39.4136 64.5361 42.0796C64.5361 44.72 62.3828 46.5144 59.3066 46.5144C56.2048 46.5144 54.0515 44.72 54.0515 42.0796C54.0515 39.4136 56.2048 37.6448 59.3066 37.6448ZM59.3066 39.3111C57.384 39.3111 56.0767 40.439 56.0767 42.0796C56.0767 43.7202 57.384 44.8225 59.3066 44.8225C61.2292 44.8225 62.5366 43.7202 62.5366 42.0796C62.5366 40.439 61.2292 39.3111 59.3066 39.3111ZM58.2556 31.8001H60.3833V35.7478H58.2556V31.8001ZM56.8713 52.7437H72.3291V54.4868H56.8713V52.7437ZM56.8713 48.0012H58.999V53.5896H56.8713V48.0012ZM94.014 31.8257H96.0392V54.9995H94.014V31.8257ZM90.3483 41.1568H94.8087V42.9512H90.3483V41.1568ZM88.964 32.3128H90.9635V53.8459H88.964V32.3128ZM81.0685 35.4146H82.7348V38.0806C82.7348 43.6433 80.9147 48.1038 77.3515 50.2315L76.0441 48.5908C79.3766 46.7451 81.0685 42.7974 81.0685 38.0806V35.4146ZM81.453 35.4146H83.1193V38.0806C83.1193 42.336 84.8368 46.1043 88.0924 47.7705L86.8363 49.4111C83.2987 47.4629 81.453 43.1819 81.453 38.0806V35.4146ZM76.5824 34.543H87.349V36.3118H76.5824V34.543ZM105.527 53V34.543H108.654L114.756 46.7964L120.857 34.543H123.984V53H120.728V41.9771L115.371 53H114.14L108.783 41.9771V53H105.527ZM131.427 53.3845C130.436 53.3845 129.594 53.1965 128.902 52.8206C128.218 52.436 127.697 51.9276 127.338 51.2953C126.988 50.6544 126.813 49.9495 126.813 49.1804C126.813 48.5396 126.911 47.9542 127.108 47.4244C127.304 46.8947 127.62 46.429 128.056 46.0274C128.5 45.6172 129.094 45.2754 129.838 45.002C130.35 44.814 130.961 44.6474 131.671 44.5021C132.38 44.3568 133.183 44.2201 134.08 44.0919C134.978 43.9552 135.964 43.8057 137.041 43.6433L135.785 44.3355C135.785 43.5152 135.588 42.9127 135.195 42.5282C134.802 42.1437 134.144 41.9514 133.222 41.9514C132.709 41.9514 132.175 42.0753 131.619 42.3231C131.064 42.5709 130.675 43.011 130.453 43.6433L127.3 42.6436C127.65 41.4986 128.308 40.5672 129.274 39.8494C130.239 39.1316 131.555 38.7727 133.222 38.7727C134.443 38.7727 135.529 38.9607 136.477 39.3367C137.426 39.7127 138.143 40.3621 138.63 41.2849C138.904 41.7976 139.066 42.3103 139.118 42.823C139.169 43.3357 139.194 43.9082 139.194 44.5405V53H136.144V50.1545L136.58 50.7441C135.905 51.6755 135.174 52.3506 134.388 52.7693C133.61 53.1794 132.623 53.3845 131.427 53.3845ZM132.171 50.6416C132.811 50.6416 133.35 50.5305 133.785 50.3084C134.23 50.0776 134.58 49.817 134.837 49.5265C135.101 49.236 135.281 48.9924 135.375 48.7959C135.554 48.4199 135.657 47.9841 135.682 47.4885C135.717 46.9844 135.734 46.5657 135.734 46.2324L136.759 46.4888C135.725 46.6597 134.888 46.8049 134.247 46.9246C133.606 47.0357 133.089 47.1382 132.696 47.2322C132.303 47.3262 131.957 47.4287 131.658 47.5398C131.316 47.6765 131.038 47.8261 130.825 47.9884C130.62 48.1422 130.466 48.3131 130.363 48.5011C130.269 48.6891 130.222 48.8984 130.222 49.1292C130.222 49.4453 130.299 49.7188 130.453 49.9495C130.615 50.1716 130.842 50.3425 131.132 50.4622C131.423 50.5818 131.769 50.6416 132.171 50.6416ZM150.833 53C149.876 53.1794 148.936 53.2563 148.013 53.2307C147.099 53.2136 146.278 53.0555 145.552 52.7565C144.834 52.4489 144.287 51.9575 143.911 51.2825C143.57 50.6502 143.39 50.0093 143.373 49.3599C143.356 48.7019 143.347 47.9585 143.347 47.1296V35.312H146.834V46.9246C146.834 47.4629 146.838 47.95 146.847 48.3858C146.864 48.813 146.953 49.1548 147.116 49.4111C147.423 49.8982 147.915 50.1631 148.59 50.2058C149.265 50.2485 150.012 50.2144 150.833 50.1033V53ZM140.989 41.8489V39.1573H150.833V41.8489H140.989ZM160.677 53C159.719 53.1794 158.78 53.2563 157.857 53.2307C156.942 53.2136 156.122 53.0555 155.396 52.7565C154.678 52.4489 154.131 51.9575 153.755 51.2825C153.413 50.6502 153.234 50.0093 153.217 49.3599C153.2 48.7019 153.191 47.9585 153.191 47.1296V35.312H156.677V46.9246C156.677 47.4629 156.682 47.95 156.69 48.3858C156.707 48.813 156.797 49.1548 156.959 49.4111C157.267 49.8982 157.758 50.1631 158.433 50.2058C159.109 50.2485 159.856 50.2144 160.677 50.1033V53ZM150.833 41.8489V39.1573H160.677V41.8489H150.833ZM185.217 31.8257H187.345V44.9507H185.217V31.8257ZM169.811 33.1587H171.913V42.5923H169.811V33.1587ZM169.811 41.4131H171.682C175.553 41.4131 179.014 41.1568 182.705 40.3877L183.013 42.1309C179.167 42.9512 175.681 43.2075 171.682 43.2075H169.811V41.4131ZM172.374 46.0786H187.345V54.6919H172.374V46.0786ZM185.268 47.7705H174.451V52.9487H185.268V47.7705ZM199.468 33.492C203.083 33.492 205.672 35.7222 205.672 38.9522C205.672 42.2078 203.083 44.438 199.468 44.438C195.854 44.438 193.239 42.2078 193.239 38.9522C193.239 35.7222 195.854 33.492 199.468 33.492ZM199.468 35.3377C197.058 35.3377 195.315 36.7989 195.315 38.9522C195.315 41.1055 197.058 42.5923 199.468 42.5923C201.852 42.5923 203.595 41.1055 203.595 38.9522C203.595 36.7989 201.852 35.3377 199.468 35.3377ZM208.697 31.8001H210.824V55.0251H208.697V31.8001ZM192.367 49.9495L192.06 48.1807C196.289 48.1807 202.134 48.155 207.184 47.3604L207.364 48.9241C202.16 49.9238 196.494 49.9495 192.367 49.9495ZM220.645 45.8479H241.64V47.6167H220.645V45.8479ZM230.079 46.3606H232.181V55.0251H230.079V46.3606ZM223.44 41.7464H239.307V43.4895H223.44V41.7464ZM223.44 32.9024H239.051V34.6199H225.542V42.2591H223.44V32.9024ZM224.926 37.2859H238.487V38.9522H224.926V37.2859ZM249.969 35.1326H251.661V38.9009C251.661 43.7202 248.713 48.6934 245.099 50.5391L243.868 48.8472C247.175 47.2322 249.969 42.823 249.969 38.9009V35.1326ZM250.354 35.1326H252.046V38.9009C252.046 42.5667 254.661 46.6939 258.019 48.2832L256.814 49.9751C253.148 48.155 250.354 43.4895 250.354 38.9009V35.1326ZM244.689 34.1841H257.173V35.9785H244.689V34.1841ZM259.916 31.8257H262.069V54.9995H259.916V31.8257ZM261.556 41.1824H265.863V42.9768H261.556V41.1824ZM273.654 33.1331H275.423V35.5171C275.423 40.0032 272.885 43.669 268.911 45.1558L267.809 43.4126C271.347 42.1565 273.654 39.0547 273.654 35.5171V33.1331ZM274.038 33.1331H275.782V35.4402C275.782 38.7215 278.037 41.6182 281.421 42.7974L280.268 44.4636C276.525 43.0537 274.038 39.6443 274.038 35.4402V33.1331ZM284.754 31.8257H286.881V45.5403H284.754V31.8257ZM279.268 46.2068C284.036 46.2068 286.984 47.8218 286.984 50.5903C286.984 53.3589 284.036 54.9482 279.268 54.9482C274.474 54.9482 271.526 53.3589 271.526 50.5903C271.526 47.8218 274.474 46.2068 279.268 46.2068ZM279.268 47.8987C275.782 47.8987 273.654 48.8984 273.654 50.5903C273.654 52.2822 275.782 53.282 279.268 53.282C282.754 53.282 284.882 52.2822 284.882 50.5903C284.882 48.8984 282.754 47.8987 279.268 47.8987ZM279.729 36.722H285.215V38.4907H279.729V36.722ZM308.746 35.8247H312.77V37.5935H308.746V35.8247ZM308.746 40.7722H312.77V42.541H308.746V40.7722ZM307.259 31.8257H309.387V46.7451H307.259V31.8257ZM302.106 46.9502C306.798 46.9502 309.643 48.4114 309.643 50.9492C309.643 53.4871 306.798 54.9482 302.106 54.9482C297.441 54.9482 294.57 53.4871 294.57 50.9492C294.57 48.4114 297.441 46.9502 302.106 46.9502ZM302.106 48.5908C298.723 48.5908 296.672 49.4624 296.672 50.9492C296.672 52.4617 298.723 53.3076 302.106 53.3076C305.516 53.3076 307.567 52.4617 307.567 50.9492C307.567 49.4624 305.516 48.5908 302.106 48.5908ZM291.468 34.4405H305.157V36.1324H291.468V34.4405ZM298.312 37.3116C301.619 37.3116 303.85 38.9009 303.85 41.3875C303.85 43.8997 301.619 45.489 298.312 45.489C294.98 45.489 292.75 43.8997 292.75 41.3875C292.75 38.9009 294.98 37.3116 298.312 37.3116ZM298.312 38.9265C296.185 38.9265 294.775 39.9007 294.775 41.3875C294.775 42.8999 296.185 43.874 298.312 43.874C300.389 43.874 301.824 42.8999 301.824 41.3875C301.824 39.9007 300.389 38.9265 298.312 38.9265ZM297.236 31.6206H299.364V35.3889H297.236V31.6206ZM314.973 44.0022H335.917V45.7454H314.973V44.0022ZM317.69 52.7437H333.609V54.4868H317.69V52.7437ZM317.69 47.7705H319.818V53.282H317.69V47.7705ZM325.458 32.5948C330.405 32.5948 333.609 34.3379 333.609 37.2346C333.609 40.1057 330.405 41.8489 325.458 41.8489C320.485 41.8489 317.306 40.1057 317.306 37.2346C317.306 34.3379 320.485 32.5948 325.458 32.5948ZM325.458 34.3379C321.818 34.3379 319.485 35.4146 319.485 37.2346C319.485 39.0547 321.818 40.1314 325.458 40.1314C329.098 40.1314 331.431 39.0547 331.431 37.2346C331.431 35.4146 329.098 34.3379 325.458 34.3379ZM436.432 31.8257H438.586V44.2586H436.432V31.8257ZM423.641 45.4121H425.743V48.2319H436.484V45.4121H438.586V54.6919H423.641V45.4121ZM425.743 49.9238V52.9744H436.484V49.9238H425.743ZM426.153 32.928C429.665 32.928 432.177 35.107 432.177 38.26C432.177 41.4387 429.665 43.6177 426.153 43.6177C422.641 43.6177 420.103 41.4387 420.103 38.26C420.103 35.107 422.641 32.928 426.153 32.928ZM426.153 34.6968C423.846 34.6968 422.179 36.158 422.179 38.26C422.179 40.3621 423.846 41.8233 426.153 41.8233C428.46 41.8233 430.126 40.3621 430.126 38.26C430.126 36.158 428.46 34.6968 426.153 34.6968ZM460.014 31.8257H462.142V54.9995H460.014V31.8257ZM444.633 34.0816H446.735V48.437H444.633V34.0816ZM444.633 47.1809H446.53C450.042 47.1809 453.708 46.9246 457.63 46.1043L457.887 47.9243C453.862 48.7446 450.196 49.0266 446.53 49.0266H444.633V47.1809ZM482.417 31.8001H484.57V55.0251H482.417V31.8001ZM484.058 40.9517H488.364V42.7461H484.058V40.9517ZM467.728 47.4629H469.548C473.829 47.4629 476.829 47.3091 480.289 46.6682L480.52 48.4627C476.957 49.1292 473.906 49.2573 469.548 49.2573H467.728V47.4629ZM467.728 34.0559H478.495V35.7991H469.83V48.2576H467.728V34.0559ZM491.208 53V50.8082H493.399V53H491.208Z" fill="black"/>
<path d="M358.735 31.5437H362.144V48.7959H358.735V31.5437ZM361.17 38.3369H365.297V41.1311H361.17V38.3369ZM346.84 52.1541H362.99V54.8713H346.84V52.1541ZM346.84 47.0015H350.249V53.3589H346.84V47.0015ZM350.07 33.0562C353.71 33.0562 356.53 35.594 356.53 39.106C356.53 42.5923 353.71 45.1301 350.07 45.1301C346.43 45.1301 343.61 42.5923 343.61 39.106C343.61 35.594 346.43 33.0562 350.07 33.0562ZM350.07 36.0298C348.327 36.0298 346.943 37.1577 346.943 39.106C346.943 41.0286 348.327 42.1565 350.07 42.1565C351.839 42.1565 353.197 41.0286 353.197 39.106C353.197 37.1577 351.839 36.0298 350.07 36.0298ZM379.907 37.2859H384.419V40.0545H379.907V37.2859ZM383.496 31.5437H386.905V45.6428H383.496V31.5437ZM378.856 46.1555C383.88 46.1555 386.982 47.8731 386.982 50.7441C386.982 53.6409 383.88 55.3071 378.856 55.3071C373.831 55.3071 370.73 53.6409 370.73 50.7441C370.73 47.8731 373.831 46.1555 378.856 46.1555ZM378.856 48.7446C375.78 48.7446 374.139 49.3855 374.139 50.7441C374.139 52.0772 375.78 52.718 378.856 52.718C381.958 52.718 383.598 52.0772 383.598 50.7441C383.598 49.3855 381.958 48.7446 378.856 48.7446ZM372.524 33.9278H375.293V35.4146C375.293 39.9519 373.191 44.1048 368.653 45.6428L366.91 42.9512C370.832 41.6182 372.524 38.4651 372.524 35.4146V33.9278ZM373.242 33.9278H375.985V35.4146C375.985 38.2088 377.6 41.1055 381.342 42.3616L379.676 45.0532C375.267 43.5921 373.242 39.6443 373.242 35.4146V33.9278ZM367.833 32.9793H380.599V35.6966H367.833V32.9793ZM404.027 36.7476H408.385V39.4649H404.027V36.7476ZM403.976 41.49H408.308V44.2073H403.976V41.49ZM390.697 33.6714H403.719V36.3631H390.697V33.6714ZM397.362 37.1834C400.618 37.1834 402.925 38.9778 402.925 41.6182C402.925 44.2586 400.618 46.053 397.362 46.053C394.106 46.053 391.799 44.2586 391.799 41.6182C391.799 38.9778 394.106 37.1834 397.362 37.1834ZM397.362 39.7212C395.927 39.7212 394.978 40.3621 394.978 41.6182C394.978 42.8743 395.927 43.5152 397.362 43.5152C398.772 43.5152 399.772 42.8743 399.772 41.6182C399.772 40.3621 398.772 39.7212 397.362 39.7212ZM395.67 31.3387H399.08V35.5428H395.67V31.3387ZM407.078 31.5437H410.487V46.6682H407.078V31.5437ZM402.463 46.9502C407.462 46.9502 410.59 48.5139 410.59 51.1287C410.59 53.7434 407.462 55.2815 402.463 55.2815C397.439 55.2815 394.337 53.7434 394.337 51.1287C394.337 48.5139 397.439 46.9502 402.463 46.9502ZM402.463 49.5649C399.541 49.5649 397.926 50.0264 397.926 51.1287C397.926 52.2053 399.541 52.718 402.463 52.718C405.386 52.718 406.975 52.2053 406.975 51.1287C406.975 50.0264 405.386 49.5649 402.463 49.5649Z" fill="#6425FE"/>
</g>
<defs>
<filter id="filter0_d_388_2270" x="0" y="0" width="546" height="93" filterUnits="userSpaceOnUse" color-interpolation-filters="sRGB">
<feFlood flood-opacity="0" result="BackgroundImageFix"/>
<feColorMatrix in="SourceAlpha" type="matrix" values="0 0 0 0 0 0 0 0 0 0 0 0 0 0 0 0 0 0 127 0" result="hardAlpha"/>
<feOffset dy="3"/>
<feGaussianBlur stdDeviation="10"/>
<feComposite in2="hardAlpha" operator="out"/>
<feColorMatrix type="matrix" values="0 0 0 0 0 0 0 0 0 0 0 0 0 0 0 0 0 0 0.35 0"/>
<feBlend mode="normal" in2="BackgroundImageFix" result="effect1_dropShadow_388_2270"/>
<feBlend mode="normal" in="SourceGraphic" in2="effect1_dropShadow_388_2270" result="shape"/>
</filter>
</defs>
</svg>
