<svg width="907" height="616" viewBox="0 0 907 616" fill="none" xmlns="http://www.w3.org/2000/svg">
<g filter="url(#filter0_d_106_2482)">
<rect x="4.3833" y="3.82056" width="898.204" height="606.598" rx="8" fill="white"/>
</g>
<path d="M64.3537 71.0299H58.2377L57.2257 73.9559H53.9917L59.5137 58.5779H63.0997L68.6217 73.9559H65.3657L64.3537 71.0299ZM63.5177 68.5659L61.2957 62.1419L59.0737 68.5659H63.5177ZM75.3497 74.1539C74.3524 74.1539 73.4577 73.9779 72.6657 73.6259C71.8737 73.2593 71.2431 72.7679 70.7737 72.1519C70.3191 71.5359 70.0697 70.8539 70.0257 70.1059H73.1277C73.1864 70.5753 73.4137 70.9639 73.8097 71.2719C74.2204 71.5799 74.7264 71.7339 75.3277 71.7339C75.9144 71.7339 76.3691 71.6166 76.6917 71.3819C77.0291 71.1473 77.1977 70.8466 77.1977 70.4799C77.1977 70.0839 76.9924 69.7906 76.5817 69.5999C76.1857 69.3946 75.5477 69.1746 74.6677 68.9399C73.7584 68.7199 73.0104 68.4926 72.4237 68.2579C71.8517 68.0233 71.3531 67.6639 70.9277 67.1799C70.5171 66.6959 70.3117 66.0433 70.3117 65.2219C70.3117 64.5473 70.5024 63.9313 70.8837 63.3739C71.2797 62.8166 71.8371 62.3766 72.5557 62.0539C73.2891 61.7313 74.1471 61.5699 75.1297 61.5699C76.5817 61.5699 77.7404 61.9366 78.6057 62.6699C79.4711 63.3886 79.9477 64.3639 80.0357 65.5959H77.0877C77.0437 65.1119 76.8384 64.7306 76.4717 64.4519C76.1197 64.1586 75.6431 64.0119 75.0417 64.0119C74.4844 64.0119 74.0517 64.1146 73.7437 64.3199C73.4504 64.5253 73.3037 64.8113 73.3037 65.1779C73.3037 65.5886 73.5091 65.9039 73.9197 66.1239C74.3304 66.3293 74.9684 66.5419 75.8337 66.7619C76.7137 66.9819 77.4397 67.2093 78.0117 67.4439C78.5837 67.6786 79.0751 68.0453 79.4857 68.5439C79.9111 69.0279 80.1311 69.6733 80.1457 70.4799C80.1457 71.1839 79.9477 71.8146 79.5517 72.3719C79.1704 72.9293 78.6131 73.3693 77.8797 73.6919C77.1611 73.9999 76.3177 74.1539 75.3497 74.1539ZM87.338 74.1539C86.3407 74.1539 85.446 73.9779 84.654 73.6259C83.862 73.2593 83.2313 72.7679 82.762 72.1519C82.3073 71.5359 82.058 70.8539 82.014 70.1059H85.116C85.1747 70.5753 85.402 70.9639 85.798 71.2719C86.2087 71.5799 86.7147 71.7339 87.316 71.7339C87.9027 71.7339 88.3573 71.6166 88.68 71.3819C89.0173 71.1473 89.186 70.8466 89.186 70.4799C89.186 70.0839 88.9807 69.7906 88.57 69.5999C88.174 69.3946 87.536 69.1746 86.656 68.9399C85.7467 68.7199 84.9987 68.4926 84.412 68.2579C83.84 68.0233 83.3413 67.6639 82.916 67.1799C82.5053 66.6959 82.3 66.0433 82.3 65.2219C82.3 64.5473 82.4907 63.9313 82.872 63.3739C83.268 62.8166 83.8253 62.3766 84.544 62.0539C85.2773 61.7313 86.1353 61.5699 87.118 61.5699C88.57 61.5699 89.7287 61.9366 90.594 62.6699C91.4593 63.3886 91.936 64.3639 92.024 65.5959H89.076C89.032 65.1119 88.8267 64.7306 88.46 64.4519C88.108 64.1586 87.6313 64.0119 87.03 64.0119C86.4727 64.0119 86.04 64.1146 85.732 64.3199C85.4387 64.5253 85.292 64.8113 85.292 65.1779C85.292 65.5886 85.4973 65.9039 85.908 66.1239C86.3187 66.3293 86.9567 66.5419 87.822 66.7619C88.702 66.9819 89.428 67.2093 90 67.4439C90.572 67.6786 91.0633 68.0453 91.474 68.5439C91.8993 69.0279 92.1193 69.6733 92.134 70.4799C92.134 71.1839 91.936 71.8146 91.54 72.3719C91.1587 72.9293 90.6013 73.3693 89.868 73.6919C89.1493 73.9999 88.306 74.1539 87.338 74.1539ZM105.992 67.5979C105.992 68.0379 105.963 68.4339 105.904 68.7859H96.9943C97.0676 69.6659 97.3756 70.3553 97.9183 70.8539C98.461 71.3526 99.1283 71.6019 99.9203 71.6019C101.064 71.6019 101.878 71.1106 102.362 70.1279H105.684C105.332 71.3013 104.658 72.2693 103.66 73.0319C102.663 73.7799 101.438 74.1539 99.9863 74.1539C98.813 74.1539 97.757 73.8973 96.8183 73.3839C95.8943 72.8559 95.1683 72.1153 94.6403 71.1619C94.127 70.2086 93.8703 69.1086 93.8703 67.8619C93.8703 66.6006 94.127 65.4933 94.6403 64.5399C95.1536 63.5866 95.8723 62.8533 96.7963 62.3399C97.7203 61.8266 98.7836 61.5699 99.9863 61.5699C101.145 61.5699 102.179 61.8193 103.088 62.3179C104.012 62.8166 104.724 63.5279 105.222 64.4519C105.736 65.3613 105.992 66.4099 105.992 67.5979ZM102.802 66.7179C102.788 65.9259 102.502 65.2953 101.944 64.8259C101.387 64.3419 100.705 64.0999 99.8983 64.0999C99.1356 64.0999 98.4903 64.3346 97.9623 64.8039C97.449 65.2586 97.1336 65.8966 97.0163 66.7179H102.802ZM111.826 64.2979V70.1939C111.826 70.6046 111.922 70.9053 112.112 71.0959C112.318 71.2719 112.655 71.3599 113.124 71.3599H114.554V73.9559H112.618C110.022 73.9559 108.724 72.6946 108.724 70.1719V64.2979H107.272V61.7679H108.724V58.7539H111.826V61.7679H114.554V64.2979H111.826ZM121.434 74.1539C120.436 74.1539 119.542 73.9779 118.75 73.6259C117.958 73.2593 117.327 72.7679 116.858 72.1519C116.403 71.5359 116.154 70.8539 116.11 70.1059H119.212C119.27 70.5753 119.498 70.9639 119.894 71.2719C120.304 71.5799 120.81 71.7339 121.412 71.7339C121.998 71.7339 122.453 71.6166 122.776 71.3819C123.113 71.1473 123.282 70.8466 123.282 70.4799C123.282 70.0839 123.076 69.7906 122.666 69.5999C122.27 69.3946 121.632 69.1746 120.752 68.9399C119.842 68.7199 119.094 68.4926 118.508 68.2579C117.936 68.0233 117.437 67.6639 117.012 67.1799C116.601 66.6959 116.396 66.0433 116.396 65.2219C116.396 64.5473 116.586 63.9313 116.968 63.3739C117.364 62.8166 117.921 62.3766 118.64 62.0539C119.373 61.7313 120.231 61.5699 121.214 61.5699C122.666 61.5699 123.824 61.9366 124.69 62.6699C125.555 63.3886 126.032 64.3639 126.12 65.5959H123.172C123.128 65.1119 122.922 64.7306 122.556 64.4519C122.204 64.1586 121.727 64.0119 121.126 64.0119C120.568 64.0119 120.136 64.1146 119.828 64.3199C119.534 64.5253 119.388 64.8113 119.388 65.1779C119.388 65.5886 119.593 65.9039 120.004 66.1239C120.414 66.3293 121.052 66.5419 121.918 66.7619C122.798 66.9819 123.524 67.2093 124.096 67.4439C124.668 67.6786 125.159 68.0453 125.57 68.5439C125.995 69.0279 126.215 69.6733 126.23 70.4799C126.23 71.1839 126.032 71.8146 125.636 72.3719C125.254 72.9293 124.697 73.3693 123.964 73.6919C123.245 73.9999 122.402 74.1539 121.434 74.1539Z" fill="black"/>
<path d="M55.2134 139.319L57.7974 144.316L60.3882 139.319H61.8853L58.4536 145.553V149.272H57.1343V145.553L53.7026 139.319H55.2134ZM62.436 145.656V145.498C62.436 144.965 62.5135 144.471 62.6685 144.015C62.8234 143.555 63.0467 143.156 63.3384 142.819C63.63 142.477 63.9832 142.213 64.3979 142.026C64.8127 141.834 65.2775 141.739 65.7925 141.739C66.312 141.739 66.7791 141.834 67.1938 142.026C67.6131 142.213 67.9686 142.477 68.2603 142.819C68.5565 143.156 68.7821 143.555 68.937 144.015C69.092 144.471 69.1694 144.965 69.1694 145.498V145.656C69.1694 146.189 69.092 146.683 68.937 147.139C68.7821 147.595 68.5565 147.993 68.2603 148.335C67.9686 148.672 67.6154 148.937 67.2007 149.128C66.7905 149.315 66.3257 149.408 65.8062 149.408C65.2866 149.408 64.8195 149.315 64.4048 149.128C63.9901 148.937 63.6346 148.672 63.3384 148.335C63.0467 147.993 62.8234 147.595 62.6685 147.139C62.5135 146.683 62.436 146.189 62.436 145.656ZM63.7007 145.498V145.656C63.7007 146.025 63.744 146.373 63.8306 146.701C63.9172 147.025 64.047 147.312 64.2202 147.563C64.3979 147.813 64.619 148.012 64.8833 148.158C65.1476 148.299 65.4552 148.369 65.8062 148.369C66.1525 148.369 66.4556 148.299 66.7153 148.158C66.9797 148.012 67.1984 147.813 67.3716 147.563C67.5448 147.312 67.6746 147.025 67.7612 146.701C67.8524 146.373 67.8979 146.025 67.8979 145.656V145.498C67.8979 145.134 67.8524 144.79 67.7612 144.466C67.6746 144.138 67.5425 143.849 67.3647 143.598C67.1916 143.343 66.9728 143.142 66.7085 142.996C66.4487 142.851 66.1434 142.778 65.7925 142.778C65.4461 142.778 65.1408 142.851 64.8765 142.996C64.6167 143.142 64.3979 143.343 64.2202 143.598C64.047 143.849 63.9172 144.138 63.8306 144.466C63.744 144.79 63.7007 145.134 63.7007 145.498ZM75.5308 147.563V141.875H76.8022V149.272H75.5923L75.5308 147.563ZM75.77 146.004L76.2964 145.991C76.2964 146.483 76.244 146.938 76.1392 147.358C76.0389 147.772 75.8748 148.132 75.647 148.438C75.4191 148.743 75.1206 148.982 74.7515 149.156C74.3823 149.324 73.9334 149.408 73.4048 149.408C73.0448 149.408 72.7144 149.356 72.4136 149.251C72.1174 149.146 71.8621 148.985 71.6479 148.766C71.4338 148.547 71.2674 148.262 71.1489 147.911C71.035 147.56 70.978 147.139 70.978 146.647V141.875H72.2427V146.66C72.2427 146.993 72.2791 147.269 72.3521 147.488C72.4295 147.702 72.5321 147.873 72.6597 148C72.7918 148.123 72.9377 148.21 73.0972 148.26C73.2612 148.31 73.4299 148.335 73.603 148.335C74.1408 148.335 74.5669 148.233 74.8813 148.028C75.1958 147.818 75.4214 147.538 75.5581 147.187C75.6994 146.831 75.77 146.437 75.77 146.004ZM80.2446 143.037V149.272H78.98V141.875H80.2104L80.2446 143.037ZM82.5552 141.834L82.5483 143.01C82.4435 142.987 82.3433 142.974 82.2476 142.969C82.1564 142.96 82.0516 142.955 81.9331 142.955C81.6414 142.955 81.384 143.001 81.1606 143.092C80.9373 143.183 80.7482 143.311 80.5933 143.475C80.4383 143.639 80.3153 143.835 80.2241 144.063C80.1375 144.286 80.0806 144.532 80.0532 144.801L79.6978 145.006C79.6978 144.56 79.741 144.14 79.8276 143.748C79.9188 143.356 80.0578 143.01 80.2446 142.709C80.4315 142.404 80.6685 142.167 80.9556 141.998C81.2472 141.825 81.5936 141.739 81.9946 141.739C82.0858 141.739 82.1906 141.75 82.3091 141.773C82.4276 141.791 82.5096 141.811 82.5552 141.834ZM90.7935 141.875V142.846H86.7944V141.875H90.7935ZM88.1479 140.077H89.4126V147.44C89.4126 147.69 89.4513 147.88 89.5288 148.007C89.6063 148.135 89.7065 148.219 89.8296 148.26C89.9526 148.301 90.0848 148.322 90.2261 148.322C90.3309 148.322 90.4403 148.312 90.5542 148.294C90.6727 148.271 90.7616 148.253 90.8208 148.24L90.8276 149.272C90.7274 149.304 90.5952 149.333 90.4312 149.361C90.2716 149.393 90.078 149.408 89.8501 149.408C89.5402 149.408 89.2554 149.347 88.9956 149.224C88.7358 149.101 88.5285 148.896 88.3735 148.609C88.2231 148.317 88.1479 147.925 88.1479 147.433V140.077ZM92.0552 145.656V145.498C92.0552 144.965 92.1326 144.471 92.2876 144.015C92.4425 143.555 92.6659 143.156 92.9575 142.819C93.2492 142.477 93.6024 142.213 94.0171 142.026C94.4318 141.834 94.8966 141.739 95.4116 141.739C95.9312 141.739 96.3983 141.834 96.813 142.026C97.2323 142.213 97.5877 142.477 97.8794 142.819C98.1756 143.156 98.4012 143.555 98.5562 144.015C98.7111 144.471 98.7886 144.965 98.7886 145.498V145.656C98.7886 146.189 98.7111 146.683 98.5562 147.139C98.4012 147.595 98.1756 147.993 97.8794 148.335C97.5877 148.672 97.2345 148.937 96.8198 149.128C96.4097 149.315 95.9448 149.408 95.4253 149.408C94.9058 149.408 94.4386 149.315 94.0239 149.128C93.6092 148.937 93.2537 148.672 92.9575 148.335C92.6659 147.993 92.4425 147.595 92.2876 147.139C92.1326 146.683 92.0552 146.189 92.0552 145.656ZM93.3198 145.498V145.656C93.3198 146.025 93.3631 146.373 93.4497 146.701C93.5363 147.025 93.6662 147.312 93.8394 147.563C94.0171 147.813 94.2381 148.012 94.5024 148.158C94.7668 148.299 95.0744 148.369 95.4253 148.369C95.7716 148.369 96.0747 148.299 96.3345 148.158C96.5988 148.012 96.8175 147.813 96.9907 147.563C97.1639 147.312 97.2938 147.025 97.3804 146.701C97.4715 146.373 97.5171 146.025 97.5171 145.656V145.498C97.5171 145.134 97.4715 144.79 97.3804 144.466C97.2938 144.138 97.1616 143.849 96.9839 143.598C96.8107 143.343 96.592 143.142 96.3276 142.996C96.0679 142.851 95.7625 142.778 95.4116 142.778C95.0653 142.778 94.7599 142.851 94.4956 142.996C94.2358 143.142 94.0171 143.343 93.8394 143.598C93.6662 143.849 93.5363 144.138 93.4497 144.466C93.3631 144.79 93.3198 145.134 93.3198 145.498ZM103.721 141.875V142.846H99.7222V141.875H103.721ZM101.076 140.077H102.34V147.44C102.34 147.69 102.379 147.88 102.457 148.007C102.534 148.135 102.634 148.219 102.757 148.26C102.88 148.301 103.013 148.322 103.154 148.322C103.259 148.322 103.368 148.312 103.482 148.294C103.6 148.271 103.689 148.253 103.749 148.24L103.755 149.272C103.655 149.304 103.523 149.333 103.359 149.361C103.199 149.393 103.006 149.408 102.778 149.408C102.468 149.408 102.183 149.347 101.923 149.224C101.664 149.101 101.456 148.896 101.301 148.609C101.151 148.317 101.076 147.925 101.076 147.433V140.077ZM109.816 148.007V144.199C109.816 143.908 109.757 143.655 109.638 143.441C109.524 143.222 109.351 143.053 109.119 142.935C108.886 142.816 108.599 142.757 108.257 142.757C107.938 142.757 107.658 142.812 107.417 142.921C107.18 143.031 106.993 143.174 106.856 143.352C106.724 143.53 106.658 143.721 106.658 143.926H105.393C105.393 143.662 105.461 143.4 105.598 143.14C105.735 142.88 105.931 142.645 106.186 142.436C106.446 142.222 106.756 142.053 107.116 141.93C107.48 141.802 107.886 141.739 108.333 141.739C108.87 141.739 109.344 141.83 109.754 142.012C110.169 142.194 110.493 142.47 110.725 142.839C110.962 143.204 111.081 143.662 111.081 144.213V147.658C111.081 147.905 111.101 148.167 111.142 148.445C111.188 148.723 111.254 148.962 111.34 149.162V149.272H110.021C109.957 149.126 109.907 148.932 109.871 148.691C109.834 148.445 109.816 148.217 109.816 148.007ZM110.035 144.787L110.048 145.676H108.77C108.41 145.676 108.089 145.706 107.806 145.765C107.524 145.82 107.287 145.904 107.095 146.018C106.904 146.132 106.758 146.275 106.658 146.449C106.557 146.617 106.507 146.815 106.507 147.043C106.507 147.276 106.56 147.488 106.665 147.679C106.769 147.87 106.927 148.023 107.136 148.137C107.35 148.246 107.612 148.301 107.922 148.301C108.31 148.301 108.652 148.219 108.948 148.055C109.244 147.891 109.479 147.69 109.652 147.453C109.83 147.216 109.925 146.986 109.939 146.763L110.479 147.371C110.447 147.563 110.361 147.775 110.219 148.007C110.078 148.24 109.889 148.463 109.652 148.677C109.419 148.887 109.141 149.062 108.818 149.203C108.499 149.34 108.139 149.408 107.738 149.408C107.236 149.408 106.797 149.31 106.418 149.115C106.045 148.919 105.753 148.657 105.543 148.328C105.338 147.996 105.236 147.624 105.236 147.214C105.236 146.818 105.313 146.469 105.468 146.168C105.623 145.863 105.847 145.61 106.138 145.409C106.43 145.204 106.781 145.049 107.191 144.945C107.601 144.84 108.059 144.787 108.565 144.787H110.035ZM114.694 138.772V149.272H113.422V138.772H114.694ZM120.69 138.772H121.961V147.836L121.852 149.272H120.69V138.772ZM126.958 145.512V145.656C126.958 146.193 126.895 146.692 126.767 147.153C126.639 147.608 126.453 148.005 126.207 148.342C125.96 148.679 125.66 148.941 125.304 149.128C124.949 149.315 124.541 149.408 124.081 149.408C123.611 149.408 123.199 149.329 122.843 149.169C122.492 149.005 122.196 148.77 121.955 148.465C121.713 148.16 121.519 147.791 121.374 147.358C121.232 146.925 121.134 146.437 121.08 145.895V145.266C121.134 144.719 121.232 144.229 121.374 143.796C121.519 143.363 121.713 142.994 121.955 142.689C122.196 142.379 122.492 142.144 122.843 141.985C123.194 141.821 123.602 141.739 124.067 141.739C124.532 141.739 124.944 141.83 125.304 142.012C125.664 142.19 125.965 142.445 126.207 142.778C126.453 143.11 126.639 143.509 126.767 143.974C126.895 144.434 126.958 144.947 126.958 145.512ZM125.687 145.656V145.512C125.687 145.143 125.653 144.796 125.584 144.473C125.516 144.145 125.407 143.858 125.256 143.612C125.106 143.361 124.908 143.165 124.662 143.024C124.416 142.878 124.112 142.805 123.752 142.805C123.433 142.805 123.155 142.86 122.918 142.969C122.686 143.078 122.488 143.227 122.324 143.413C122.16 143.596 122.025 143.805 121.92 144.042C121.82 144.275 121.745 144.516 121.695 144.767V146.414C121.768 146.733 121.886 147.041 122.05 147.337C122.219 147.629 122.442 147.868 122.72 148.055C123.003 148.242 123.351 148.335 123.766 148.335C124.108 148.335 124.4 148.267 124.641 148.13C124.887 147.989 125.085 147.795 125.236 147.549C125.391 147.303 125.505 147.018 125.578 146.695C125.651 146.371 125.687 146.025 125.687 145.656ZM133.169 148.007V144.199C133.169 143.908 133.11 143.655 132.992 143.441C132.878 143.222 132.705 143.053 132.472 142.935C132.24 142.816 131.953 142.757 131.611 142.757C131.292 142.757 131.012 142.812 130.77 142.921C130.533 143.031 130.346 143.174 130.209 143.352C130.077 143.53 130.011 143.721 130.011 143.926H128.747C128.747 143.662 128.815 143.4 128.952 143.14C129.088 142.88 129.284 142.645 129.54 142.436C129.799 142.222 130.109 142.053 130.469 141.93C130.834 141.802 131.239 141.739 131.686 141.739C132.224 141.739 132.698 141.83 133.108 142.012C133.523 142.194 133.846 142.47 134.079 142.839C134.316 143.204 134.434 143.662 134.434 144.213V147.658C134.434 147.905 134.455 148.167 134.496 148.445C134.541 148.723 134.607 148.962 134.694 149.162V149.272H133.375C133.311 149.126 133.261 148.932 133.224 148.691C133.188 148.445 133.169 148.217 133.169 148.007ZM133.388 144.787L133.402 145.676H132.124C131.764 145.676 131.442 145.706 131.16 145.765C130.877 145.82 130.64 145.904 130.449 146.018C130.257 146.132 130.111 146.275 130.011 146.449C129.911 146.617 129.861 146.815 129.861 147.043C129.861 147.276 129.913 147.488 130.018 147.679C130.123 147.87 130.28 148.023 130.49 148.137C130.704 148.246 130.966 148.301 131.276 148.301C131.663 148.301 132.005 148.219 132.301 148.055C132.597 147.891 132.832 147.69 133.005 147.453C133.183 147.216 133.279 146.986 133.292 146.763L133.833 147.371C133.801 147.563 133.714 147.775 133.573 148.007C133.431 148.24 133.242 148.463 133.005 148.677C132.773 148.887 132.495 149.062 132.171 149.203C131.852 149.34 131.492 149.408 131.091 149.408C130.59 149.408 130.15 149.31 129.772 149.115C129.398 148.919 129.107 148.657 128.897 148.328C128.692 147.996 128.589 147.624 128.589 147.214C128.589 146.818 128.667 146.469 128.822 146.168C128.977 145.863 129.2 145.61 129.492 145.409C129.783 145.204 130.134 145.049 130.544 144.945C130.955 144.84 131.413 144.787 131.918 144.787H133.388ZM138.047 138.772V149.272H136.776V138.772H138.047ZM144.689 148.007V144.199C144.689 143.908 144.63 143.655 144.511 143.441C144.397 143.222 144.224 143.053 143.992 142.935C143.759 142.816 143.472 142.757 143.13 142.757C142.811 142.757 142.531 142.812 142.29 142.921C142.053 143.031 141.866 143.174 141.729 143.352C141.597 143.53 141.531 143.721 141.531 143.926H140.266C140.266 143.662 140.334 143.4 140.471 143.14C140.608 142.88 140.804 142.645 141.059 142.436C141.319 142.222 141.629 142.053 141.989 141.93C142.353 141.802 142.759 141.739 143.206 141.739C143.743 141.739 144.217 141.83 144.627 142.012C145.042 142.194 145.366 142.47 145.598 142.839C145.835 143.204 145.954 143.662 145.954 144.213V147.658C145.954 147.905 145.974 148.167 146.015 148.445C146.061 148.723 146.127 148.962 146.213 149.162V149.272H144.894C144.83 149.126 144.78 148.932 144.744 148.691C144.707 148.445 144.689 148.217 144.689 148.007ZM144.908 144.787L144.921 145.676H143.643C143.283 145.676 142.962 145.706 142.679 145.765C142.397 145.82 142.16 145.904 141.968 146.018C141.777 146.132 141.631 146.275 141.531 146.449C141.431 146.617 141.38 146.815 141.38 147.043C141.38 147.276 141.433 147.488 141.538 147.679C141.642 147.87 141.8 148.023 142.009 148.137C142.223 148.246 142.486 148.301 142.795 148.301C143.183 148.301 143.525 148.219 143.821 148.055C144.117 147.891 144.352 147.69 144.525 147.453C144.703 147.216 144.798 146.986 144.812 146.763L145.352 147.371C145.32 147.563 145.234 147.775 145.092 148.007C144.951 148.24 144.762 148.463 144.525 148.677C144.292 148.887 144.014 149.062 143.691 149.203C143.372 149.34 143.012 149.408 142.611 149.408C142.11 149.408 141.67 149.31 141.292 149.115C140.918 148.919 140.626 148.657 140.417 148.328C140.211 147.996 140.109 147.624 140.109 147.214C140.109 146.818 140.186 146.469 140.341 146.168C140.496 145.863 140.72 145.61 141.011 145.409C141.303 145.204 141.654 145.049 142.064 144.945C142.474 144.84 142.932 144.787 143.438 144.787H144.908ZM149.458 143.454V149.272H148.193V141.875H149.389L149.458 143.454ZM149.157 145.293L148.63 145.273C148.635 144.767 148.71 144.3 148.856 143.871C149.002 143.438 149.207 143.062 149.471 142.743C149.736 142.424 150.05 142.178 150.415 142.005C150.784 141.827 151.192 141.739 151.638 141.739C152.003 141.739 152.331 141.789 152.623 141.889C152.914 141.985 153.163 142.14 153.368 142.354C153.577 142.568 153.737 142.846 153.846 143.188C153.956 143.525 154.01 143.937 154.01 144.425V149.272H152.739V144.411C152.739 144.024 152.682 143.714 152.568 143.482C152.454 143.245 152.288 143.074 152.069 142.969C151.85 142.86 151.581 142.805 151.262 142.805C150.948 142.805 150.661 142.871 150.401 143.003C150.146 143.135 149.925 143.318 149.738 143.55C149.556 143.783 149.412 144.049 149.307 144.35C149.207 144.646 149.157 144.961 149.157 145.293ZM159.141 148.369C159.442 148.369 159.72 148.308 159.975 148.185C160.23 148.062 160.44 147.893 160.604 147.679C160.768 147.46 160.861 147.212 160.884 146.934H162.087C162.065 147.371 161.917 147.779 161.643 148.158C161.374 148.531 161.021 148.834 160.583 149.067C160.146 149.295 159.665 149.408 159.141 149.408C158.585 149.408 158.1 149.31 157.685 149.115C157.275 148.919 156.933 148.65 156.66 148.308C156.391 147.966 156.188 147.574 156.051 147.132C155.919 146.685 155.853 146.214 155.853 145.717V145.43C155.853 144.933 155.919 144.464 156.051 144.022C156.188 143.575 156.391 143.181 156.66 142.839C156.933 142.497 157.275 142.228 157.685 142.033C158.1 141.837 158.585 141.739 159.141 141.739C159.72 141.739 160.226 141.857 160.659 142.094C161.092 142.326 161.431 142.645 161.677 143.051C161.928 143.452 162.065 143.908 162.087 144.418H160.884C160.861 144.113 160.775 143.837 160.625 143.591C160.479 143.345 160.278 143.149 160.023 143.003C159.772 142.853 159.478 142.778 159.141 142.778C158.754 142.778 158.428 142.855 158.164 143.01C157.904 143.16 157.696 143.366 157.542 143.625C157.391 143.88 157.282 144.165 157.213 144.48C157.15 144.79 157.118 145.106 157.118 145.43V145.717C157.118 146.041 157.15 146.36 157.213 146.674C157.277 146.989 157.384 147.273 157.535 147.529C157.69 147.784 157.897 147.989 158.157 148.144C158.421 148.294 158.749 148.369 159.141 148.369ZM166.829 149.408C166.314 149.408 165.847 149.322 165.427 149.149C165.013 148.971 164.655 148.723 164.354 148.404C164.058 148.085 163.83 147.706 163.67 147.269C163.511 146.831 163.431 146.353 163.431 145.833V145.546C163.431 144.945 163.52 144.409 163.698 143.94C163.875 143.466 164.117 143.065 164.422 142.737C164.728 142.408 165.074 142.16 165.461 141.991C165.849 141.823 166.25 141.739 166.665 141.739C167.193 141.739 167.649 141.83 168.032 142.012C168.419 142.194 168.736 142.449 168.982 142.778C169.228 143.101 169.41 143.484 169.529 143.926C169.647 144.364 169.707 144.842 169.707 145.362V145.929H164.183V144.897H168.442V144.801C168.424 144.473 168.355 144.154 168.237 143.844C168.123 143.534 167.941 143.279 167.69 143.078C167.439 142.878 167.097 142.778 166.665 142.778C166.377 142.778 166.113 142.839 165.872 142.962C165.63 143.081 165.423 143.258 165.25 143.495C165.076 143.732 164.942 144.022 164.846 144.364C164.75 144.705 164.703 145.1 164.703 145.546V145.833C164.703 146.184 164.75 146.515 164.846 146.824C164.946 147.13 165.09 147.399 165.277 147.631C165.468 147.864 165.698 148.046 165.967 148.178C166.241 148.31 166.551 148.376 166.897 148.376C167.344 148.376 167.722 148.285 168.032 148.103C168.342 147.921 168.613 147.677 168.845 147.371L169.611 147.98C169.451 148.221 169.249 148.451 169.002 148.67C168.756 148.889 168.453 149.067 168.093 149.203C167.738 149.34 167.316 149.408 166.829 149.408Z" fill="#424242"/>
<path d="M66.0741 194.246C66.0741 195.009 65.8761 195.728 65.4801 196.402C65.0988 197.062 64.5268 197.612 63.7641 198.052C63.0161 198.478 62.1288 198.727 61.1021 198.8V200.582H59.6941V198.778C58.2274 198.646 57.0468 198.206 56.1521 197.458C55.2574 196.696 54.7954 195.669 54.7661 194.378H58.0661C58.1541 195.434 58.6968 196.072 59.6941 196.292V192.09C58.6381 191.826 57.7874 191.562 57.1421 191.298C56.4968 191.034 55.9394 190.609 55.4701 190.022C55.0008 189.436 54.7661 188.636 54.7661 187.624C54.7661 186.348 55.2208 185.307 56.1301 184.5C57.0541 183.694 58.2421 183.232 59.6941 183.114V181.332H61.1021V183.114C62.5101 183.232 63.6321 183.657 64.4681 184.39C65.3188 185.124 65.7954 186.136 65.8981 187.426H62.5761C62.5321 187.001 62.3781 186.634 62.1141 186.326C61.8648 186.004 61.5274 185.776 61.1021 185.644V189.802C62.2021 190.081 63.0674 190.352 63.6981 190.616C64.3434 190.866 64.9008 191.284 65.3701 191.87C65.8394 192.442 66.0741 193.234 66.0741 194.246ZM57.9781 187.47C57.9781 187.954 58.1248 188.35 58.4181 188.658C58.7114 188.952 59.1368 189.194 59.6941 189.384V185.578C59.1661 185.652 58.7481 185.85 58.4401 186.172C58.1321 186.495 57.9781 186.928 57.9781 187.47ZM61.1021 196.336C61.6594 196.234 62.0921 196.006 62.4001 195.654C62.7228 195.302 62.8841 194.877 62.8841 194.378C62.8841 193.894 62.7301 193.506 62.4221 193.212C62.1141 192.919 61.6741 192.677 61.1021 192.486V196.336ZM70.1286 195.192C71.5366 194.019 72.6586 193.044 73.4946 192.266C74.3306 191.474 75.0273 190.653 75.5846 189.802C76.142 188.952 76.4206 188.116 76.4206 187.294C76.4206 186.546 76.2446 185.96 75.8926 185.534C75.5406 185.109 74.998 184.896 74.2646 184.896C73.5313 184.896 72.9666 185.146 72.5706 185.644C72.1746 186.128 71.9693 186.796 71.9546 187.646H68.9626C69.0213 185.886 69.542 184.552 70.5246 183.642C71.522 182.733 72.7833 182.278 74.3086 182.278C75.9806 182.278 77.264 182.726 78.1586 183.62C79.0533 184.5 79.5006 185.666 79.5006 187.118C79.5006 188.262 79.1926 189.355 78.5766 190.396C77.9606 191.438 77.2566 192.347 76.4646 193.124C75.6726 193.887 74.6386 194.811 73.3626 195.896H79.8526V198.448H68.9846V196.16L70.1286 195.192ZM92.5734 185.292H85.4454V189.054C85.7534 188.673 86.1934 188.365 86.7654 188.13C87.3374 187.881 87.9461 187.756 88.5914 187.756C89.7648 187.756 90.7254 188.013 91.4734 188.526C92.2214 189.04 92.7641 189.7 93.1014 190.506C93.4388 191.298 93.6074 192.149 93.6074 193.058C93.6074 194.745 93.1234 196.102 92.1554 197.128C91.2021 198.155 89.8381 198.668 88.0634 198.668C86.3914 198.668 85.0568 198.25 84.0594 197.414C83.0621 196.578 82.4974 195.486 82.3654 194.136H85.3574C85.4894 194.723 85.7828 195.192 86.2374 195.544C86.7068 195.896 87.3008 196.072 88.0194 196.072C88.8848 196.072 89.5374 195.801 89.9774 195.258C90.4174 194.716 90.6374 193.997 90.6374 193.102C90.6374 192.193 90.4101 191.504 89.9554 191.034C89.5154 190.55 88.8628 190.308 87.9974 190.308C87.3814 190.308 86.8681 190.462 86.4574 190.77C86.0468 191.078 85.7534 191.489 85.5774 192.002H82.6294V182.586H92.5734V185.292ZM99.6696 195.434L97.0956 201.616H95.1156L96.5456 195.434H99.6696ZM105.102 194.158C105.219 194.804 105.483 195.302 105.894 195.654C106.319 195.992 106.884 196.16 107.588 196.16C108.497 196.16 109.157 195.786 109.568 195.038C109.978 194.276 110.184 193 110.184 191.21C109.846 191.68 109.37 192.046 108.754 192.31C108.152 192.574 107.5 192.706 106.796 192.706C105.857 192.706 105.006 192.516 104.244 192.134C103.496 191.738 102.902 191.159 102.462 190.396C102.022 189.619 101.802 188.68 101.802 187.58C101.802 185.952 102.286 184.662 103.254 183.708C104.222 182.74 105.542 182.256 107.214 182.256C109.296 182.256 110.763 182.924 111.614 184.258C112.479 185.593 112.912 187.602 112.912 190.286C112.912 192.193 112.743 193.755 112.406 194.972C112.083 196.19 111.518 197.114 110.712 197.744C109.92 198.375 108.834 198.69 107.456 198.69C106.37 198.69 105.446 198.485 104.684 198.074C103.921 197.649 103.334 197.099 102.924 196.424C102.528 195.735 102.3 194.98 102.242 194.158H105.102ZM107.434 190.198C108.196 190.198 108.798 189.964 109.238 189.494C109.678 189.025 109.898 188.394 109.898 187.602C109.898 186.737 109.663 186.07 109.194 185.6C108.739 185.116 108.116 184.874 107.324 184.874C106.532 184.874 105.901 185.124 105.432 185.622C104.977 186.106 104.75 186.752 104.75 187.558C104.75 188.336 104.97 188.974 105.41 189.472C105.864 189.956 106.539 190.198 107.434 190.198ZM115.309 190.44C115.309 187.903 115.764 185.916 116.673 184.478C117.597 183.041 119.122 182.322 121.249 182.322C123.376 182.322 124.894 183.041 125.803 184.478C126.727 185.916 127.189 187.903 127.189 190.44C127.189 192.992 126.727 194.994 125.803 196.446C124.894 197.898 123.376 198.624 121.249 198.624C119.122 198.624 117.597 197.898 116.673 196.446C115.764 194.994 115.309 192.992 115.309 190.44ZM124.153 190.44C124.153 189.355 124.08 188.446 123.933 187.712C123.801 186.964 123.522 186.356 123.097 185.886C122.686 185.417 122.07 185.182 121.249 185.182C120.428 185.182 119.804 185.417 119.379 185.886C118.968 186.356 118.69 186.964 118.543 187.712C118.411 188.446 118.345 189.355 118.345 190.44C118.345 191.555 118.411 192.494 118.543 193.256C118.675 194.004 118.954 194.613 119.379 195.082C119.804 195.537 120.428 195.764 121.249 195.764C122.07 195.764 122.694 195.537 123.119 195.082C123.544 194.613 123.823 194.004 123.955 193.256C124.087 192.494 124.153 191.555 124.153 190.44ZM129.158 185.468V182.63H134.46V198.668H131.292V185.468H129.158ZM139.218 198.822C138.661 198.822 138.199 198.654 137.832 198.316C137.48 197.964 137.304 197.532 137.304 197.018C137.304 196.505 137.48 196.08 137.832 195.742C138.199 195.39 138.661 195.214 139.218 195.214C139.761 195.214 140.208 195.39 140.56 195.742C140.912 196.08 141.088 196.505 141.088 197.018C141.088 197.532 140.912 197.964 140.56 198.316C140.208 198.654 139.761 198.822 139.218 198.822ZM143.217 190.44C143.217 187.903 143.672 185.916 144.581 184.478C145.505 183.041 147.031 182.322 149.157 182.322C151.284 182.322 152.802 183.041 153.711 184.478C154.635 185.916 155.097 187.903 155.097 190.44C155.097 192.992 154.635 194.994 153.711 196.446C152.802 197.898 151.284 198.624 149.157 198.624C147.031 198.624 145.505 197.898 144.581 196.446C143.672 194.994 143.217 192.992 143.217 190.44ZM152.061 190.44C152.061 189.355 151.988 188.446 151.841 187.712C151.709 186.964 151.431 186.356 151.005 185.886C150.595 185.417 149.979 185.182 149.157 185.182C148.336 185.182 147.713 185.417 147.287 185.886C146.877 186.356 146.598 186.964 146.451 187.712C146.319 188.446 146.253 189.355 146.253 190.44C146.253 191.555 146.319 192.494 146.451 193.256C146.583 194.004 146.862 194.613 147.287 195.082C147.713 195.537 148.336 195.764 149.157 195.764C149.979 195.764 150.602 195.537 151.027 195.082C151.453 194.613 151.731 194.004 151.863 193.256C151.995 192.494 152.061 191.555 152.061 190.44ZM159.156 198.822C158.599 198.822 158.137 198.654 157.77 198.316C157.418 197.964 157.242 197.532 157.242 197.018C157.242 196.505 157.418 196.08 157.77 195.742C158.137 195.39 158.599 195.214 159.156 195.214C159.699 195.214 160.146 195.39 160.498 195.742C160.85 196.08 161.026 196.505 161.026 197.018C161.026 197.532 160.85 197.964 160.498 198.316C160.146 198.654 159.699 198.822 159.156 198.822Z" fill="black"/>
<path d="M162.741 196.396V194.636L167.973 187.148H170.581V194.444H171.989V196.396H170.581V198.668H168.341V196.396H162.741ZM168.485 189.548L165.205 194.444H168.485V189.548ZM173.143 189.068V187.004H176.999V198.668H174.695V189.068H173.143Z" fill="#757575"/>
<path d="M60.4041 250.221C60.4041 250.637 60.2961 251.029 60.0801 251.397C59.8721 251.757 59.5601 252.057 59.1441 252.297C58.7361 252.529 58.2521 252.665 57.6921 252.705V253.677H56.9241V252.693C56.1241 252.621 55.4801 252.381 54.9921 251.973C54.5041 251.557 54.2521 250.997 54.2361 250.293H56.0361C56.0841 250.869 56.3801 251.217 56.9241 251.337V249.045C56.3481 248.901 55.8841 248.757 55.5321 248.613C55.1801 248.469 54.8761 248.237 54.6201 247.917C54.3641 247.597 54.2361 247.161 54.2361 246.609C54.2361 245.913 54.4841 245.345 54.9801 244.905C55.4841 244.465 56.1321 244.213 56.9241 244.149V243.177H57.6921V244.149C58.4601 244.213 59.0721 244.445 59.5281 244.845C59.9921 245.245 60.2521 245.797 60.3081 246.501H58.4961C58.4721 246.269 58.3881 246.069 58.2441 245.901C58.1081 245.725 57.9241 245.601 57.6921 245.529V247.797C58.2921 247.949 58.7641 248.097 59.1081 248.241C59.4601 248.377 59.7641 248.605 60.0201 248.925C60.2761 249.237 60.4041 249.669 60.4041 250.221ZM55.9881 246.525C55.9881 246.789 56.0681 247.005 56.2281 247.173C56.3881 247.333 56.6201 247.465 56.9241 247.569V245.493C56.6361 245.533 56.4081 245.641 56.2401 245.817C56.0721 245.993 55.9881 246.229 55.9881 246.525ZM57.6921 251.361C57.9961 251.305 58.2321 251.181 58.4001 250.989C58.5761 250.797 58.6641 250.565 58.6641 250.293C58.6641 250.029 58.5801 249.817 58.4121 249.657C58.2441 249.497 58.0041 249.365 57.6921 249.261V251.361ZM61.9837 245.433V243.885H64.8757V252.633H63.1477V245.433H61.9837ZM68.6633 250.869L67.2593 254.241H66.1793L66.9593 250.869H68.6633ZM75.6622 245.337H71.7742V247.389C71.9422 247.181 72.1822 247.013 72.4942 246.885C72.8062 246.749 73.1382 246.681 73.4902 246.681C74.1302 246.681 74.6542 246.821 75.0622 247.101C75.4702 247.381 75.7662 247.741 75.9502 248.181C76.1342 248.613 76.2262 249.077 76.2262 249.573C76.2262 250.493 75.9622 251.233 75.4342 251.793C74.9142 252.353 74.1702 252.633 73.2022 252.633C72.2902 252.633 71.5622 252.405 71.0182 251.949C70.4742 251.493 70.1662 250.897 70.0942 250.161H71.7262C71.7982 250.481 71.9582 250.737 72.2062 250.929C72.4622 251.121 72.7862 251.217 73.1782 251.217C73.6502 251.217 74.0062 251.069 74.2462 250.773C74.4862 250.477 74.6062 250.085 74.6062 249.597C74.6062 249.101 74.4822 248.725 74.2342 248.469C73.9942 248.205 73.6382 248.073 73.1662 248.073C72.8302 248.073 72.5502 248.157 72.3262 248.325C72.1022 248.493 71.9422 248.717 71.8462 248.997H70.2382V243.861H75.6622V245.337ZM78.1328 250.737C78.9008 250.097 79.5128 249.565 79.9688 249.141C80.4248 248.709 80.8048 248.261 81.1088 247.797C81.4128 247.333 81.5648 246.877 81.5648 246.429C81.5648 246.021 81.4688 245.701 81.2768 245.469C81.0848 245.237 80.7888 245.121 80.3888 245.121C79.9888 245.121 79.6808 245.257 79.4648 245.529C79.2488 245.793 79.1368 246.157 79.1288 246.621H77.4968C77.5288 245.661 77.8128 244.933 78.3488 244.437C78.8928 243.941 79.5808 243.693 80.4128 243.693C81.3248 243.693 82.0248 243.937 82.5128 244.425C83.0008 244.905 83.2448 245.541 83.2448 246.333C83.2448 246.957 83.0768 247.553 82.7408 248.121C82.4048 248.689 82.0208 249.185 81.5888 249.609C81.1568 250.025 80.5928 250.529 79.8968 251.121H83.4368V252.513H77.5088V251.265L78.1328 250.737ZM84.3915 245.433V243.885H87.2835V252.633H85.5555V245.433H84.3915ZM89.9791 252.717C89.6751 252.717 89.4231 252.625 89.2231 252.441C89.0311 252.249 88.9351 252.013 88.9351 251.733C88.9351 251.453 89.0311 251.221 89.2231 251.037C89.4231 250.845 89.6751 250.749 89.9791 250.749C90.2751 250.749 90.5191 250.845 90.7111 251.037C90.9031 251.221 90.9991 251.453 90.9991 251.733C90.9991 252.013 90.9031 252.249 90.7111 252.441C90.5191 252.625 90.2751 252.717 89.9791 252.717ZM92.1883 250.929V249.609L96.1123 243.993H98.0683V249.465H99.1243V250.929H98.0683V252.633H96.3883V250.929H92.1883ZM96.4963 245.793L94.0363 249.465H96.4963V245.793Z" fill="black"/>
<g opacity="0.8" filter="url(#filter1_d_106_2482)">
<rect x="348.9" y="181.56" width="127.143" height="24" rx="10" fill="#E8FFEB"/>
<path d="M360.068 191.808C360.464 191.215 361.336 191.215 361.732 191.808L363.863 195.006C364.306 195.67 363.83 196.56 363.031 196.56H358.768C357.97 196.56 357.493 195.67 357.936 195.006L360.068 191.808Z" fill="#049C6B"/>
<path d="M371.35 193.156C370.417 192.671 369.95 191.92 369.95 190.902C369.95 190.398 370.076 189.941 370.328 189.53C370.589 189.11 370.977 188.779 371.49 188.536C372.013 188.284 372.647 188.158 373.394 188.158C374.141 188.158 374.771 188.284 375.284 188.536C375.807 188.779 376.194 189.11 376.446 189.53C376.707 189.941 376.838 190.398 376.838 190.902C376.838 191.416 376.712 191.868 376.46 192.26C376.208 192.643 375.872 192.942 375.452 193.156C375.965 193.38 376.367 193.707 376.656 194.136C376.945 194.566 377.09 195.074 377.09 195.662C377.09 196.297 376.927 196.852 376.6 197.328C376.283 197.795 375.844 198.154 375.284 198.406C374.724 198.658 374.094 198.784 373.394 198.784C372.694 198.784 372.064 198.658 371.504 198.406C370.953 198.154 370.515 197.795 370.188 197.328C369.871 196.852 369.712 196.297 369.712 195.662C369.712 195.074 369.857 194.566 370.146 194.136C370.435 193.698 370.837 193.371 371.35 193.156ZM374.934 191.182C374.934 190.725 374.794 190.37 374.514 190.118C374.243 189.866 373.87 189.74 373.394 189.74C372.927 189.74 372.554 189.866 372.274 190.118C372.003 190.37 371.868 190.73 371.868 191.196C371.868 191.616 372.008 191.952 372.288 192.204C372.577 192.456 372.946 192.582 373.394 192.582C373.842 192.582 374.211 192.456 374.5 192.204C374.789 191.943 374.934 191.602 374.934 191.182ZM373.394 194.01C372.862 194.01 372.428 194.146 372.092 194.416C371.765 194.687 371.602 195.074 371.602 195.578C371.602 196.045 371.761 196.428 372.078 196.726C372.405 197.016 372.843 197.16 373.394 197.16C373.945 197.16 374.379 197.011 374.696 196.712C375.013 196.414 375.172 196.036 375.172 195.578C375.172 195.084 375.009 194.701 374.682 194.43C374.355 194.15 373.926 194.01 373.394 194.01ZM378.5 190.16V188.354H381.874V198.56H379.858V190.16H378.5ZM383.91 193.324C383.91 191.71 384.2 190.445 384.778 189.53C385.366 188.616 386.337 188.158 387.69 188.158C389.044 188.158 390.01 188.616 390.588 189.53C391.176 190.445 391.47 191.71 391.47 193.324C391.47 194.948 391.176 196.222 390.588 197.146C390.01 198.07 389.044 198.532 387.69 198.532C386.337 198.532 385.366 198.07 384.778 197.146C384.2 196.222 383.91 194.948 383.91 193.324ZM389.538 193.324C389.538 192.634 389.492 192.055 389.398 191.588C389.314 191.112 389.137 190.725 388.866 190.426C388.605 190.128 388.213 189.978 387.69 189.978C387.168 189.978 386.771 190.128 386.5 190.426C386.239 190.725 386.062 191.112 385.968 191.588C385.884 192.055 385.842 192.634 385.842 193.324C385.842 194.034 385.884 194.631 385.968 195.116C386.052 195.592 386.23 195.98 386.5 196.278C386.771 196.568 387.168 196.712 387.69 196.712C388.213 196.712 388.61 196.568 388.88 196.278C389.151 195.98 389.328 195.592 389.412 195.116C389.496 194.631 389.538 194.034 389.538 193.324ZM392.837 190.86C392.837 190.151 393.042 189.596 393.453 189.194C393.873 188.793 394.41 188.592 395.063 188.592C395.716 188.592 396.248 188.793 396.659 189.194C397.079 189.596 397.289 190.151 397.289 190.86C397.289 191.579 397.079 192.139 396.659 192.54C396.248 192.942 395.716 193.142 395.063 193.142C394.41 193.142 393.873 192.942 393.453 192.54C393.042 192.139 392.837 191.579 392.837 190.86ZM401.825 188.76L396.323 198.56H394.419L399.907 188.76H401.825ZM395.049 189.768C394.536 189.768 394.279 190.132 394.279 190.86C394.279 191.598 394.536 191.966 395.049 191.966C395.301 191.966 395.497 191.878 395.637 191.7C395.777 191.514 395.847 191.234 395.847 190.86C395.847 190.132 395.581 189.768 395.049 189.768ZM398.983 196.446C398.983 195.728 399.188 195.172 399.599 194.78C400.019 194.379 400.556 194.178 401.209 194.178C401.862 194.178 402.39 194.379 402.791 194.78C403.202 195.172 403.407 195.728 403.407 196.446C403.407 197.165 403.202 197.725 402.791 198.126C402.39 198.528 401.862 198.728 401.209 198.728C400.546 198.728 400.01 198.528 399.599 198.126C399.188 197.725 398.983 197.165 398.983 196.446ZM401.195 195.354C400.663 195.354 400.397 195.718 400.397 196.446C400.397 197.184 400.663 197.552 401.195 197.552C401.718 197.552 401.979 197.184 401.979 196.446C401.979 195.718 401.718 195.354 401.195 195.354Z" fill="#049C6B"/>
</g>
<path d="M12.6574 600.615L6.43408 600.519H18.5119C25.2127 600.077 34.4932 598.078 43.7738 589.801C56.2204 578.701 68.667 556.308 81.1135 547.134C93.5601 537.959 106.007 542.004 118.453 537.252C130.9 532.499 143.346 518.951 155.793 514.285C168.24 509.62 180.686 513.838 193.133 509.346C205.579 504.855 218.026 491.655 230.472 491.737C242.919 491.818 255.366 505.182 267.812 504.199C280.259 503.215 292.705 487.885 305.152 479.743C317.598 471.601 330.045 470.648 342.492 472.802C354.938 474.956 367.385 480.217 379.831 480.311C392.278 480.405 404.724 475.332 417.171 471.608C429.618 467.884 442.064 465.509 454.511 457.143C466.957 448.777 479.404 434.42 491.85 430.232C504.297 426.044 516.744 432.024 529.19 428.924C541.637 425.824 554.083 413.645 566.53 400.453C578.977 387.261 591.423 373.056 603.87 371.448C616.316 369.84 628.763 380.829 641.209 382.493C653.656 384.157 666.103 376.495 678.549 375.206C690.996 373.917 703.442 379 715.889 370.445C728.335 361.89 740.782 339.698 753.229 325.944C765.675 312.191 778.122 306.877 790.568 302.436C803.015 297.994 815.461 294.426 827.908 291.305C840.355 288.184 852.801 285.51 865.248 285.974C877.694 286.438 890.141 290.039 896.364 291.84L902.588 293.641V600.519H18.5119C16.226 600.669 14.2404 600.639 12.6574 600.615Z" fill="url(#paint0_linear_106_2482)"/>
<g opacity="0.4">
<path d="M440.698 516.402H438.97V515.01H442.33V523.95H440.698V516.402ZM444.325 515.01H445.957V518.91H449.761V515.01H451.405V523.95H449.761V520.35H445.957V523.95H444.325V515.01Z" fill="black"/>
<path d="M515.533 521.982H511.429V520.614L515.437 515.01H517.141V520.614H518.449V521.982H517.141V523.95H515.533V521.982ZM515.533 520.614V517.026L513.037 520.614H515.533ZM519.712 515.01H521.344V518.91H525.148V515.01H526.792V523.95H525.148V520.35H521.344V523.95H519.712V515.01Z" fill="black"/>
<path d="M591.832 516.402H590.104V515.01H593.464V523.95H591.832V516.402ZM595.46 515.01H598.376C599.312 515.01 600.132 515.198 600.836 515.574C601.54 515.95 602.084 516.478 602.468 517.158C602.852 517.83 603.044 518.602 603.044 519.474C603.044 520.338 602.852 521.11 602.468 521.79C602.084 522.47 601.536 523.002 600.824 523.386C600.12 523.762 599.304 523.95 598.376 523.95H595.46V515.01ZM598.412 522.51C599.012 522.51 599.536 522.386 599.984 522.138C600.44 521.89 600.788 521.538 601.028 521.082C601.276 520.618 601.4 520.082 601.4 519.474C601.4 518.866 601.276 518.334 601.028 517.878C600.788 517.422 600.44 517.07 599.984 516.822C599.536 516.574 599.012 516.45 598.412 516.45H597.092V522.51H598.412Z" fill="black"/>
<path d="M666.711 516.378H662.499V514.998H668.427V516.378L664.791 523.95H662.991L666.711 516.378ZM669.694 515.01H672.61C673.546 515.01 674.366 515.198 675.07 515.574C675.774 515.95 676.318 516.478 676.702 517.158C677.086 517.83 677.278 518.602 677.278 519.474C677.278 520.338 677.086 521.11 676.702 521.79C676.318 522.47 675.77 523.002 675.058 523.386C674.354 523.762 673.538 523.95 672.61 523.95H669.694V515.01ZM672.646 522.51C673.246 522.51 673.77 522.386 674.218 522.138C674.674 521.89 675.022 521.538 675.262 521.082C675.51 520.618 675.634 520.082 675.634 519.474C675.634 518.866 675.51 518.334 675.262 517.878C675.022 517.422 674.674 517.07 674.218 516.822C673.77 516.574 673.246 516.45 672.646 516.45H671.326V522.51H672.646Z" fill="black"/>
</g>
<path d="M342.095 524.094C341.607 524.094 341.143 524.002 340.703 523.818C340.271 523.634 339.899 523.374 339.587 523.038C339.283 522.702 339.075 522.314 338.963 521.874L340.391 521.37C340.535 521.77 340.755 522.078 341.051 522.294C341.347 522.51 341.695 522.618 342.095 522.618C342.575 522.618 342.959 522.482 343.247 522.21C343.543 521.938 343.691 521.57 343.691 521.106C343.691 520.65 343.543 520.29 343.247 520.026C342.959 519.754 342.571 519.618 342.083 519.618C341.747 519.618 341.443 519.682 341.171 519.81L340.799 519.03L343.115 516.39H339.467V515.01H344.951V516.294L343.115 518.442C343.787 518.546 344.323 518.834 344.723 519.306C345.123 519.77 345.323 520.354 345.323 521.058C345.323 521.626 345.183 522.142 344.903 522.606C344.623 523.07 344.235 523.434 343.739 523.698C343.251 523.962 342.703 524.094 342.095 524.094ZM350.163 524.094C349.459 524.094 348.835 523.902 348.291 523.518C347.755 523.134 347.335 522.594 347.031 521.898C346.735 521.194 346.587 520.386 346.587 519.474C346.587 518.562 346.735 517.758 347.031 517.062C347.335 516.366 347.755 515.826 348.291 515.442C348.827 515.058 349.447 514.866 350.151 514.866C350.863 514.866 351.491 515.058 352.035 515.442C352.579 515.826 352.999 516.366 353.295 517.062C353.599 517.758 353.751 518.562 353.751 519.474C353.751 520.386 353.599 521.194 353.295 521.898C352.999 522.594 352.579 523.134 352.035 523.518C351.499 523.902 350.875 524.094 350.163 524.094ZM348.219 519.474C348.219 520.442 348.391 521.206 348.735 521.766C349.079 522.326 349.555 522.606 350.163 522.606C350.771 522.606 351.247 522.33 351.591 521.778C351.943 521.218 352.119 520.45 352.119 519.474C352.119 518.506 351.943 517.746 351.591 517.194C351.247 516.634 350.767 516.354 350.151 516.354C349.543 516.354 349.067 516.63 348.723 517.182C348.387 517.734 348.219 518.498 348.219 519.474ZM355.143 517.422H356.619V518.238C356.787 517.926 357.027 517.69 357.339 517.53C357.659 517.362 358.027 517.278 358.443 517.278C358.875 517.278 359.271 517.374 359.631 517.566C359.991 517.75 360.267 518.006 360.459 518.334C360.675 517.982 360.955 517.718 361.299 517.542C361.651 517.366 362.047 517.278 362.487 517.278C362.943 517.278 363.355 517.382 363.723 517.59C364.091 517.798 364.379 518.09 364.587 518.466C364.795 518.842 364.899 519.27 364.899 519.75V523.95H363.327V520.122C363.327 519.69 363.211 519.35 362.979 519.102C362.755 518.846 362.451 518.718 362.067 518.718C361.691 518.718 361.387 518.846 361.155 519.102C360.923 519.358 360.807 519.698 360.807 520.122V523.95H359.235V520.122C359.235 519.69 359.119 519.35 358.887 519.102C358.663 518.846 358.359 518.718 357.975 518.718C357.599 518.718 357.295 518.846 357.063 519.102C356.831 519.358 356.715 519.698 356.715 520.122V523.95H355.143V517.422Z" fill="black"/>
<path d="M53.3438 418.818H521.642" stroke="#D9D9D9" stroke-linecap="round" stroke-linejoin="round" stroke-dasharray="7"/>
<path d="M53.3438 353.593H768.564" stroke="#D9D9D9" stroke-linecap="round" stroke-linejoin="round" stroke-dasharray="7"/>
<path d="M53.3438 484.044H251.306" stroke="#D9D9D9" stroke-linecap="round" stroke-linejoin="round" stroke-dasharray="7"/>
<ellipse opacity="0.4" cx="834.915" cy="297.336" rx="63.5715" ry="50.5498" fill="url(#paint1_radial_106_2482)"/>
<path d="M852.019 290.813C852.019 296.887 845.685 302.358 837.114 302.358C828.543 302.358 822.208 296.887 822.208 290.813C822.208 284.739 828.543 279.268 837.114 279.268C845.685 279.268 852.019 284.739 852.019 290.813Z" fill="#1573FE" stroke="white" stroke-width="3"/>
<path d="M662.656 204.236C662.656 199.818 666.238 196.236 670.656 196.236H828.965C833.384 196.236 836.965 199.818 836.965 204.236V269.615H670.656C666.238 269.615 662.656 266.033 662.656 261.615V204.236Z" fill="#1573FE"/>
<line x1="835.415" y1="258.2" x2="835.415" y2="282.66" stroke="#1573FE"/>
<path d="M694.299 230.58V240.588H693.034V232.159L690.484 233.089V231.947L694.101 230.58H694.299ZM699.867 235.85L698.855 235.591L699.354 230.634H704.461V231.803H700.428L700.127 234.51C700.309 234.406 700.539 234.308 700.817 234.216C701.1 234.125 701.424 234.08 701.788 234.08C702.248 234.08 702.661 234.16 703.025 234.319C703.39 234.474 703.7 234.697 703.955 234.989C704.215 235.281 704.413 235.632 704.55 236.042C704.687 236.452 704.755 236.91 704.755 237.416C704.755 237.894 704.689 238.334 704.557 238.735C704.429 239.136 704.235 239.487 703.976 239.788C703.716 240.084 703.388 240.314 702.991 240.478C702.599 240.642 702.137 240.724 701.604 240.724C701.202 240.724 700.822 240.67 700.462 240.56C700.106 240.446 699.787 240.275 699.505 240.048C699.227 239.815 698.999 239.528 698.821 239.186C698.648 238.84 698.539 238.434 698.493 237.969H699.696C699.751 238.343 699.86 238.658 700.024 238.913C700.188 239.168 700.403 239.362 700.667 239.494C700.936 239.621 701.248 239.685 701.604 239.685C701.904 239.685 702.171 239.633 702.403 239.528C702.636 239.423 702.832 239.273 702.991 239.077C703.151 238.881 703.271 238.644 703.354 238.366C703.44 238.088 703.483 237.776 703.483 237.429C703.483 237.115 703.44 236.823 703.354 236.554C703.267 236.286 703.137 236.051 702.964 235.85C702.795 235.65 702.588 235.495 702.342 235.385C702.096 235.272 701.813 235.215 701.494 235.215C701.07 235.215 700.749 235.272 700.53 235.385C700.316 235.499 700.095 235.654 699.867 235.85ZM706.55 239.918C706.55 239.703 706.616 239.523 706.748 239.378C706.885 239.227 707.081 239.152 707.336 239.152C707.591 239.152 707.785 239.227 707.917 239.378C708.054 239.523 708.122 239.703 708.122 239.918C708.122 240.127 708.054 240.305 707.917 240.451C707.785 240.597 707.591 240.67 707.336 240.67C707.081 240.67 706.885 240.597 706.748 240.451C706.616 240.305 706.55 240.127 706.55 239.918ZM716.767 230.634V231.345L712.645 240.588H711.312L715.427 231.674H710.04V230.634H716.767ZM724.734 237.894C724.734 238.5 724.593 239.015 724.311 239.439C724.033 239.858 723.654 240.177 723.176 240.396C722.702 240.615 722.166 240.724 721.569 240.724C720.972 240.724 720.435 240.615 719.956 240.396C719.478 240.177 719.099 239.858 718.821 239.439C718.543 239.015 718.404 238.5 718.404 237.894C718.404 237.498 718.479 237.135 718.63 236.807C718.785 236.475 719.001 236.185 719.279 235.939C719.562 235.693 719.895 235.504 720.277 235.372C720.665 235.235 721.091 235.167 721.556 235.167C722.166 235.167 722.711 235.285 723.189 235.522C723.668 235.755 724.044 236.076 724.317 236.486C724.595 236.896 724.734 237.366 724.734 237.894ZM723.463 237.867C723.463 237.498 723.383 237.172 723.224 236.889C723.064 236.602 722.841 236.379 722.554 236.219C722.267 236.06 721.934 235.98 721.556 235.98C721.168 235.98 720.833 236.06 720.551 236.219C720.273 236.379 720.056 236.602 719.901 236.889C719.746 237.172 719.669 237.498 719.669 237.867C719.669 238.25 719.744 238.578 719.895 238.851C720.049 239.12 720.268 239.327 720.551 239.473C720.838 239.615 721.177 239.685 721.569 239.685C721.961 239.685 722.299 239.615 722.581 239.473C722.864 239.327 723.08 239.12 723.23 238.851C723.385 238.578 723.463 238.25 723.463 237.867ZM724.502 233.225C724.502 233.708 724.374 234.144 724.119 234.531C723.864 234.918 723.515 235.224 723.073 235.447C722.631 235.67 722.13 235.782 721.569 235.782C721 235.782 720.492 235.67 720.045 235.447C719.603 235.224 719.257 234.918 719.006 234.531C718.755 234.144 718.63 233.708 718.63 233.225C718.63 232.647 718.755 232.154 719.006 231.749C719.261 231.343 719.61 231.033 720.052 230.819C720.494 230.605 720.997 230.498 721.562 230.498C722.132 230.498 722.638 230.605 723.08 230.819C723.522 231.033 723.868 231.343 724.119 231.749C724.374 232.154 724.502 232.647 724.502 233.225ZM723.237 233.246C723.237 232.913 723.167 232.619 723.025 232.364C722.884 232.109 722.688 231.908 722.438 231.762C722.187 231.612 721.895 231.537 721.562 231.537C721.23 231.537 720.938 231.607 720.688 231.749C720.441 231.885 720.248 232.081 720.106 232.337C719.97 232.592 719.901 232.895 719.901 233.246C719.901 233.588 719.97 233.886 720.106 234.141C720.248 234.397 720.444 234.595 720.694 234.736C720.945 234.877 721.237 234.948 721.569 234.948C721.902 234.948 722.191 234.877 722.438 234.736C722.688 234.595 722.884 234.397 723.025 234.141C723.167 233.886 723.237 233.588 723.237 233.246ZM732.832 234.818V236.336C732.832 237.151 732.759 237.84 732.613 238.4C732.467 238.961 732.258 239.412 731.984 239.754C731.711 240.095 731.381 240.344 730.993 240.499C730.61 240.649 730.177 240.724 729.694 240.724C729.312 240.724 728.958 240.676 728.635 240.581C728.311 240.485 728.02 240.332 727.76 240.123C727.505 239.909 727.286 239.631 727.104 239.289C726.921 238.947 726.782 238.532 726.687 238.045C726.591 237.557 726.543 236.987 726.543 236.336V234.818C726.543 234.002 726.616 233.319 726.762 232.767C726.912 232.216 727.124 231.774 727.397 231.441C727.671 231.104 727.999 230.862 728.382 230.716C728.769 230.571 729.202 230.498 729.681 230.498C730.068 230.498 730.424 230.546 730.747 230.641C731.075 230.732 731.367 230.881 731.622 231.086C731.877 231.286 732.094 231.555 732.271 231.892C732.454 232.225 732.593 232.633 732.688 233.116C732.784 233.599 732.832 234.166 732.832 234.818ZM731.561 236.541V234.606C731.561 234.16 731.533 233.768 731.479 233.43C731.428 233.089 731.353 232.797 731.253 232.555C731.153 232.314 731.025 232.118 730.87 231.967C730.72 231.817 730.544 231.708 730.344 231.639C730.148 231.566 729.927 231.53 729.681 231.53C729.38 231.53 729.113 231.587 728.881 231.701C728.648 231.81 728.452 231.986 728.293 232.227C728.138 232.469 728.02 232.786 727.938 233.177C727.855 233.569 727.814 234.046 727.814 234.606V236.541C727.814 236.987 727.84 237.382 727.89 237.723C727.944 238.065 728.024 238.361 728.129 238.612C728.234 238.858 728.361 239.061 728.512 239.22C728.662 239.38 728.835 239.498 729.031 239.576C729.232 239.649 729.453 239.685 729.694 239.685C730.004 239.685 730.275 239.626 730.508 239.508C730.74 239.389 730.934 239.204 731.089 238.954C731.248 238.699 731.367 238.373 731.444 237.976C731.522 237.575 731.561 237.097 731.561 236.541ZM735.994 239.084V240.102C735.994 240.517 735.889 240.954 735.68 241.415C735.47 241.88 735.176 242.267 734.798 242.577L734.08 242.078C734.226 241.877 734.349 241.672 734.449 241.463C734.549 241.258 734.625 241.043 734.675 240.82C734.729 240.601 734.757 240.369 734.757 240.123V239.084H735.994ZM743.969 234.818V236.336C743.969 237.151 743.896 237.84 743.75 238.4C743.604 238.961 743.395 239.412 743.121 239.754C742.848 240.095 742.517 240.344 742.13 240.499C741.747 240.649 741.314 240.724 740.831 240.724C740.448 240.724 740.095 240.676 739.771 240.581C739.448 240.485 739.156 240.332 738.896 240.123C738.641 239.909 738.423 239.631 738.24 239.289C738.058 238.947 737.919 238.532 737.823 238.045C737.728 237.557 737.68 236.987 737.68 236.336V234.818C737.68 234.002 737.753 233.319 737.898 232.767C738.049 232.216 738.261 231.774 738.534 231.441C738.808 231.104 739.136 230.862 739.519 230.716C739.906 230.571 740.339 230.498 740.817 230.498C741.205 230.498 741.56 230.546 741.884 230.641C742.212 230.732 742.504 230.881 742.759 231.086C743.014 231.286 743.23 231.555 743.408 231.892C743.59 232.225 743.729 232.633 743.825 233.116C743.921 233.599 743.969 234.166 743.969 234.818ZM742.697 236.541V234.606C742.697 234.16 742.67 233.768 742.615 233.43C742.565 233.089 742.49 232.797 742.39 232.555C742.289 232.314 742.162 232.118 742.007 231.967C741.856 231.817 741.681 231.708 741.48 231.639C741.285 231.566 741.063 231.53 740.817 231.53C740.517 231.53 740.25 231.587 740.018 231.701C739.785 231.81 739.589 231.986 739.43 232.227C739.275 232.469 739.156 232.786 739.074 233.177C738.992 233.569 738.951 234.046 738.951 234.606V236.541C738.951 236.987 738.976 237.382 739.026 237.723C739.081 238.065 739.161 238.361 739.266 238.612C739.37 238.858 739.498 239.061 739.648 239.22C739.799 239.38 739.972 239.498 740.168 239.576C740.368 239.649 740.59 239.685 740.831 239.685C741.141 239.685 741.412 239.626 741.645 239.508C741.877 239.389 742.071 239.204 742.226 238.954C742.385 238.699 742.504 238.373 742.581 237.976C742.659 237.575 742.697 237.097 742.697 236.541ZM750.002 230.58V240.588H748.737V232.159L746.188 233.089V231.947L749.804 230.58H750.002Z" fill="white"/>
<path d="M698.639 214.497H696.679L692.241 207.791V214.497H690.281V204.711H692.241L696.679 211.431V204.711H698.639V214.497ZM708.446 204.725L705.142 211.095V214.497H703.182V211.095L699.864 204.725H702.076L704.176 209.191L706.262 204.725H708.446ZM713.051 214.595C712.369 214.595 711.753 214.479 711.203 214.245C710.661 214.012 710.232 213.676 709.915 213.237C709.597 212.799 709.434 212.281 709.425 211.683H711.525C711.553 212.085 711.693 212.402 711.945 212.635C712.206 212.869 712.561 212.985 713.009 212.985C713.466 212.985 713.825 212.878 714.087 212.663C714.348 212.439 714.479 212.15 714.479 211.795C714.479 211.506 714.39 211.268 714.213 211.081C714.035 210.895 713.811 210.75 713.541 210.647C713.279 210.535 712.915 210.414 712.449 210.283C711.814 210.097 711.296 209.915 710.895 209.737C710.503 209.551 710.162 209.275 709.873 208.911C709.593 208.538 709.453 208.043 709.453 207.427C709.453 206.849 709.597 206.345 709.887 205.915C710.176 205.486 710.582 205.159 711.105 204.935C711.627 204.702 712.225 204.585 712.897 204.585C713.905 204.585 714.721 204.833 715.347 205.327C715.981 205.813 716.331 206.494 716.397 207.371H714.241C714.222 207.035 714.077 206.76 713.807 206.545C713.545 206.321 713.195 206.209 712.757 206.209C712.374 206.209 712.066 206.307 711.833 206.503C711.609 206.699 711.497 206.984 711.497 207.357C711.497 207.619 711.581 207.838 711.749 208.015C711.926 208.183 712.141 208.323 712.393 208.435C712.654 208.538 713.018 208.659 713.485 208.799C714.119 208.986 714.637 209.173 715.039 209.359C715.44 209.546 715.785 209.826 716.075 210.199C716.364 210.573 716.509 211.063 716.509 211.669C716.509 212.192 716.373 212.677 716.103 213.125C715.832 213.573 715.435 213.933 714.913 214.203C714.39 214.465 713.769 214.595 713.051 214.595ZM720.268 206.307V208.757H723.558V210.311H720.268V212.901H723.978V214.497H718.308V204.711H723.978V206.307H720.268Z" fill="white"/>
<defs>
<filter id="filter0_d_106_2482" x="0.383301" y="0.820557" width="906.204" height="614.598" filterUnits="userSpaceOnUse" color-interpolation-filters="sRGB">
<feFlood flood-opacity="0" result="BackgroundImageFix"/>
<feColorMatrix in="SourceAlpha" type="matrix" values="0 0 0 0 0 0 0 0 0 0 0 0 0 0 0 0 0 0 127 0" result="hardAlpha"/>
<feOffset dy="1"/>
<feGaussianBlur stdDeviation="2"/>
<feComposite in2="hardAlpha" operator="out"/>
<feColorMatrix type="matrix" values="0 0 0 0 0 0 0 0 0 0 0 0 0 0 0 0 0 0 0.1 0"/>
<feBlend mode="normal" in2="BackgroundImageFix" result="effect1_dropShadow_106_2482"/>
<feBlend mode="normal" in="SourceGraphic" in2="effect1_dropShadow_106_2482" result="shape"/>
</filter>
<filter id="filter1_d_106_2482" x="324.9" y="165.56" width="175.143" height="72" filterUnits="userSpaceOnUse" color-interpolation-filters="sRGB">
<feFlood flood-opacity="0" result="BackgroundImageFix"/>
<feColorMatrix in="SourceAlpha" type="matrix" values="0 0 0 0 0 0 0 0 0 0 0 0 0 0 0 0 0 0 127 0" result="hardAlpha"/>
<feOffset dy="8"/>
<feGaussianBlur stdDeviation="12"/>
<feColorMatrix type="matrix" values="0 0 0 0 0.964706 0 0 0 0 0.109804 0 0 0 0 0.478431 0 0 0 0.01 0"/>
<feBlend mode="normal" in2="BackgroundImageFix" result="effect1_dropShadow_106_2482"/>
<feBlend mode="normal" in="SourceGraphic" in2="effect1_dropShadow_106_2482" result="shape"/>
</filter>
<linearGradient id="paint0_linear_106_2482" x1="510.664" y1="224.07" x2="510.664" y2="562.433" gradientUnits="userSpaceOnUse">
<stop stop-color="#1573FE"/>
<stop offset="1" stop-color="white"/>
</linearGradient>
<radialGradient id="paint1_radial_106_2482" cx="0" cy="0" r="1" gradientUnits="userSpaceOnUse" gradientTransform="translate(834.915 297.336) rotate(22.9228) scale(80.6414 69.7805)">
<stop stop-color="#1573FE"/>
<stop offset="0.723902" stop-color="#1573FE" stop-opacity="0.1"/>
</radialGradient>
</defs>
</svg>
