<svg width="254" height="56" viewBox="0 0 254 56" fill="none" xmlns="http://www.w3.org/2000/svg">
<path d="M60.707 30.0078C60.707 29.2266 60.5768 28.5299 60.3164 27.918C60.056 27.306 59.6263 26.7591 59.0273 26.2773C58.4414 25.7826 57.6471 25.3268 56.6445 24.9102C55.6549 24.4805 54.418 24.0573 52.9336 23.6406C51.5143 23.237 50.2318 22.7943 49.0859 22.3125C47.9401 21.8307 46.957 21.2773 46.1367 20.6523C45.3294 20.0273 44.7109 19.2982 44.2812 18.4648C43.8516 17.6185 43.6367 16.6354 43.6367 15.5156C43.6367 14.4219 43.8711 13.4258 44.3398 12.5273C44.8086 11.6289 45.4661 10.8542 46.3125 10.2031C47.1719 9.55208 48.181 9.05078 49.3398 8.69922C50.5117 8.34766 51.7943 8.17188 53.1875 8.17188C55.1797 8.17188 56.8984 8.54948 58.3438 9.30469C59.8021 10.0599 60.9284 11.082 61.7227 12.3711C62.5299 13.6471 62.9336 15.0794 62.9336 16.668H60.5312C60.5312 15.431 60.2383 14.3307 59.6523 13.3672C59.0794 12.3906 58.2461 11.6289 57.1523 11.082C56.0716 10.5221 54.75 10.2422 53.1875 10.2422C51.625 10.2422 50.3099 10.4831 49.2422 10.9648C48.1875 11.4336 47.3867 12.0651 46.8398 12.8594C46.306 13.6406 46.0391 14.513 46.0391 15.4766C46.0391 16.1536 46.1693 16.7786 46.4297 17.3516C46.6901 17.9115 47.1133 18.4388 47.6992 18.9336C48.2982 19.4154 49.0859 19.8711 50.0625 20.3008C51.0391 20.7174 52.2435 21.1146 53.6758 21.4922C55.1862 21.9089 56.5273 22.3711 57.6992 22.8789C58.8711 23.3867 59.8607 23.9727 60.668 24.6367C61.4753 25.2878 62.0872 26.0495 62.5039 26.9219C62.9206 27.7943 63.1289 28.8099 63.1289 29.9688C63.1289 31.1276 62.8815 32.1693 62.3867 33.0938C61.9049 34.0052 61.2214 34.7799 60.3359 35.418C59.4635 36.056 58.4284 36.5443 57.2305 36.8828C56.0456 37.2214 54.75 37.3906 53.3438 37.3906C52.0807 37.3906 50.8242 37.2279 49.5742 36.9023C48.3242 36.5768 47.1784 36.0755 46.1367 35.3984C45.1081 34.7083 44.2812 33.8229 43.6562 32.7422C43.0443 31.6615 42.7383 30.3724 42.7383 28.875H45.1211C45.1211 30.0729 45.362 31.082 45.8438 31.9023C46.3255 32.7227 46.9635 33.3867 47.7578 33.8945C48.5651 34.4023 49.4505 34.7734 50.4141 35.0078C51.3906 35.2292 52.3672 35.3398 53.3438 35.3398C54.8411 35.3398 56.1367 35.1185 57.2305 34.6758C58.3372 34.2331 59.1901 33.6146 59.7891 32.8203C60.401 32.013 60.707 31.0755 60.707 30.0078ZM75.7656 15.8672V17.7812H65.1797V15.8672H75.7656ZM69.0664 10.4375H71.3906V31.8633C71.3906 32.8398 71.5208 33.5755 71.7812 34.0703C72.0417 34.5651 72.3802 34.8971 72.7969 35.0664C73.2135 35.2357 73.6628 35.3203 74.1445 35.3203C74.4961 35.3203 74.8346 35.3008 75.1602 35.2617C75.4857 35.2096 75.7786 35.1576 76.0391 35.1055L76.1367 37.0781C75.8503 37.1693 75.4792 37.2409 75.0234 37.293C74.5677 37.3581 74.112 37.3906 73.6562 37.3906C72.7578 37.3906 71.9635 37.2279 71.2734 36.9023C70.5833 36.5638 70.043 35.9909 69.6523 35.1836C69.2617 34.3633 69.0664 33.25 69.0664 31.8438V10.4375ZM78.9883 26.7656V26.1211C78.9883 24.5846 79.2096 23.1654 79.6523 21.8633C80.0951 20.5612 80.7266 19.4349 81.5469 18.4844C82.3802 17.5339 83.3763 16.7982 84.5352 16.2773C85.694 15.7435 86.9831 15.4766 88.4023 15.4766C89.8346 15.4766 91.1302 15.7435 92.2891 16.2773C93.4479 16.7982 94.444 17.5339 95.2773 18.4844C96.1107 19.4349 96.7487 20.5612 97.1914 21.8633C97.6341 23.1654 97.8555 24.5846 97.8555 26.1211V26.7656C97.8555 28.3021 97.6341 29.7214 97.1914 31.0234C96.7487 32.3125 96.1107 33.4323 95.2773 34.3828C94.457 35.3333 93.4674 36.0755 92.3086 36.6094C91.1497 37.1302 89.8607 37.3906 88.4414 37.3906C87.0091 37.3906 85.7135 37.1302 84.5547 36.6094C83.3958 36.0755 82.3997 35.3333 81.5664 34.3828C80.7331 33.4323 80.0951 32.3125 79.6523 31.0234C79.2096 29.7214 78.9883 28.3021 78.9883 26.7656ZM81.3125 26.1211V26.7656C81.3125 27.9245 81.4688 29.0247 81.7812 30.0664C82.0938 31.0951 82.5495 32.013 83.1484 32.8203C83.7474 33.6146 84.4896 34.2396 85.375 34.6953C86.2604 35.151 87.2826 35.3789 88.4414 35.3789C89.5872 35.3789 90.5964 35.151 91.4688 34.6953C92.3542 34.2396 93.0964 33.6146 93.6953 32.8203C94.2943 32.013 94.7435 31.0951 95.043 30.0664C95.3555 29.0247 95.5117 27.9245 95.5117 26.7656V26.1211C95.5117 24.9753 95.3555 23.888 95.043 22.8594C94.7435 21.8307 94.2878 20.9128 93.6758 20.1055C93.0768 19.2982 92.3346 18.6602 91.4492 18.1914C90.5638 17.7227 89.5482 17.4883 88.4023 17.4883C87.2565 17.4883 86.2409 17.7227 85.3555 18.1914C84.4831 18.6602 83.7409 19.2982 83.1289 20.1055C82.5299 20.9128 82.0742 21.8307 81.7617 22.8594C81.4622 23.888 81.3125 24.9753 81.3125 26.1211ZM110.492 35.3789C111.482 35.3789 112.406 35.1966 113.266 34.832C114.138 34.4544 114.854 33.901 115.414 33.1719C115.987 32.4297 116.312 31.5247 116.391 30.457H118.617C118.552 31.7982 118.142 32.9961 117.387 34.0508C116.645 35.0924 115.668 35.9128 114.457 36.5117C113.259 37.0977 111.938 37.3906 110.492 37.3906C109.021 37.3906 107.719 37.1237 106.586 36.5898C105.466 36.056 104.529 35.3138 103.773 34.3633C103.018 33.3997 102.445 32.2799 102.055 31.0039C101.677 29.7148 101.488 28.3281 101.488 26.8438V26.0234C101.488 24.5391 101.677 23.1589 102.055 21.8828C102.445 20.5938 103.018 19.474 103.773 18.5234C104.529 17.5599 105.466 16.8112 106.586 16.2773C107.706 15.7435 109.001 15.4766 110.473 15.4766C111.983 15.4766 113.337 15.7826 114.535 16.3945C115.746 17.0065 116.71 17.8724 117.426 18.9922C118.155 20.112 118.552 21.4401 118.617 22.9766H116.391C116.326 21.8438 116.026 20.8672 115.492 20.0469C114.958 19.2266 114.255 18.5951 113.383 18.1523C112.51 17.7096 111.54 17.4883 110.473 17.4883C109.275 17.4883 108.253 17.7227 107.406 18.1914C106.56 18.6471 105.87 19.2786 105.336 20.0859C104.815 20.8802 104.431 21.7917 104.184 22.8203C103.936 23.8359 103.812 24.9036 103.812 26.0234V26.8438C103.812 27.9766 103.93 29.0573 104.164 30.0859C104.411 31.1016 104.796 32.0065 105.316 32.8008C105.85 33.5951 106.54 34.2266 107.387 34.6953C108.246 35.151 109.281 35.3789 110.492 35.3789ZM125.648 7V37H123.324V7H125.648ZM138.91 15.8672L129.027 25.6719L124.828 29.7344L124.477 27.4492L127.855 23.7969L135.961 15.8672H138.91ZM136.879 37L128.051 26.0234L129.34 24.0117L139.691 37H136.879ZM159.848 30.6133L165.512 8.5625H168.48L168.148 14.2461L162.094 37H159.008L159.848 30.6133ZM155.609 8.5625L160.199 30.4375L160.609 37H157.328L150.746 8.5625H155.609ZM174.906 30.3789L179.438 8.5625H184.32L177.738 37H174.457L174.906 30.3789ZM169.633 8.5625L175.238 30.6719L176.059 37H172.973L167.016 14.2461L166.703 8.5625H169.633ZM192.523 15.8672V37H187.797V15.8672H192.523ZM187.484 10.3203C187.484 9.60417 187.719 9.01172 188.188 8.54297C188.669 8.0612 189.333 7.82031 190.18 7.82031C191.013 7.82031 191.671 8.0612 192.152 8.54297C192.634 9.01172 192.875 9.60417 192.875 10.3203C192.875 11.0234 192.634 11.6094 192.152 12.0781C191.671 12.5469 191.013 12.7812 190.18 12.7812C189.333 12.7812 188.669 12.5469 188.188 12.0781C187.719 11.6094 187.484 11.0234 187.484 10.3203ZM209.535 31.2773C209.535 30.8086 209.418 30.3854 209.184 30.0078C208.949 29.6172 208.5 29.2656 207.836 28.9531C207.185 28.6406 206.221 28.3542 204.945 28.0938C203.826 27.8464 202.797 27.5534 201.859 27.2148C200.935 26.8633 200.141 26.4401 199.477 25.9453C198.812 25.4505 198.298 24.8646 197.934 24.1875C197.569 23.5104 197.387 22.7292 197.387 21.8438C197.387 20.9844 197.576 20.1706 197.953 19.4023C198.331 18.6341 198.871 17.957 199.574 17.3711C200.277 16.7852 201.13 16.3229 202.133 15.9844C203.148 15.6458 204.281 15.4766 205.531 15.4766C207.302 15.4766 208.819 15.776 210.082 16.375C211.358 16.9609 212.335 17.7617 213.012 18.7773C213.689 19.7799 214.027 20.9128 214.027 22.1758H209.32C209.32 21.6159 209.177 21.0951 208.891 20.6133C208.617 20.1185 208.201 19.7214 207.641 19.4219C207.081 19.1094 206.378 18.9531 205.531 18.9531C204.724 18.9531 204.053 19.0833 203.52 19.3438C202.999 19.5911 202.608 19.9167 202.348 20.3203C202.1 20.724 201.977 21.1667 201.977 21.6484C201.977 22 202.042 22.319 202.172 22.6055C202.315 22.8789 202.549 23.1328 202.875 23.3672C203.201 23.5885 203.643 23.7969 204.203 23.9922C204.776 24.1875 205.492 24.3763 206.352 24.5586C207.966 24.8971 209.353 25.3333 210.512 25.8672C211.684 26.388 212.582 27.0651 213.207 27.8984C213.832 28.7188 214.145 29.7604 214.145 31.0234C214.145 31.9609 213.943 32.8203 213.539 33.6016C213.148 34.3698 212.576 35.0404 211.82 35.6133C211.065 36.1732 210.16 36.6094 209.105 36.9219C208.064 37.2344 206.892 37.3906 205.59 37.3906C203.676 37.3906 202.055 37.0521 200.727 36.375C199.398 35.6849 198.389 34.806 197.699 33.7383C197.022 32.6576 196.684 31.5378 196.684 30.3789H201.234C201.286 31.2513 201.527 31.9479 201.957 32.4688C202.4 32.9766 202.947 33.3477 203.598 33.582C204.262 33.8034 204.945 33.9141 205.648 33.9141C206.495 33.9141 207.204 33.8034 207.777 33.582C208.35 33.3477 208.786 33.0352 209.086 32.6445C209.385 32.2409 209.535 31.7852 209.535 31.2773ZM227.582 37.3906C226.02 37.3906 224.607 37.1367 223.344 36.6289C222.094 36.1081 221.026 35.3854 220.141 34.4609C219.268 33.5365 218.598 32.4492 218.129 31.1992C217.66 29.9492 217.426 28.6016 217.426 27.1562V26.375C217.426 24.7214 217.667 23.224 218.148 21.8828C218.63 20.5417 219.301 19.3958 220.16 18.4453C221.02 17.4818 222.035 16.7461 223.207 16.2383C224.379 15.7305 225.648 15.4766 227.016 15.4766C228.526 15.4766 229.848 15.7305 230.98 16.2383C232.113 16.7461 233.051 17.4622 233.793 18.3867C234.548 19.2982 235.108 20.3854 235.473 21.6484C235.85 22.9115 236.039 24.3047 236.039 25.8281V27.8398H219.711V24.4609H231.391V24.0898C231.365 23.2435 231.195 22.4492 230.883 21.707C230.583 20.9648 230.121 20.3659 229.496 19.9102C228.871 19.4544 228.038 19.2266 226.996 19.2266C226.215 19.2266 225.518 19.3958 224.906 19.7344C224.307 20.0599 223.806 20.5352 223.402 21.1602C222.999 21.7852 222.686 22.5404 222.465 23.4258C222.257 24.2982 222.152 25.2812 222.152 26.375V27.1562C222.152 28.0807 222.276 28.9401 222.523 29.7344C222.784 30.5156 223.161 31.1992 223.656 31.7852C224.151 32.3711 224.75 32.8333 225.453 33.1719C226.156 33.4974 226.957 33.6602 227.855 33.6602C228.988 33.6602 229.997 33.4323 230.883 32.9766C231.768 32.5208 232.536 31.8763 233.188 31.043L235.668 33.4453C235.212 34.1094 234.62 34.7474 233.891 35.3594C233.161 35.9583 232.27 36.4466 231.215 36.8242C230.173 37.2018 228.962 37.3906 227.582 37.3906Z" fill="#6425FE"/>
<rect y="20.9944" width="16.7756" height="16.4352" fill="#6425FE"/>
<rect x="2.31934" y="23.4353" width="11.9052" height="11.3093" fill="#F8F8F8"/>
<rect x="4.87012" y="25.5505" width="6.95761" height="7.07851" fill="#6425FE"/>
<rect x="14.2246" y="7" width="16.7756" height="16.4352" fill="#6425FE"/>
<rect x="16.5439" y="9.44092" width="11.9052" height="11.3093" fill="#F8F8F8"/>
<rect x="19.0952" y="11.5564" width="6.95761" height="7.07851" fill="#6425FE"/>
</svg>
